<?xml version="1.0" standalone="no"?><!DOCTYPE svg PUBLIC "-//W3C//DTD SVG 1.1//EN" "http://www.w3.org/Graphics/SVG/1.1/DTD/svg11.dtd"><svg t="1508831609956" class="icon" style="" viewBox="0 0 1024 1024" version="1.1" xmlns="http://www.w3.org/2000/svg" p-id="2996" xmlns:xlink="http://www.w3.org/1999/xlink" width="32" height="32"><defs><style type="text/css"></style></defs><path d="M512 750.656c26.88 0 251.136-275.968 251.136-413.44 0-137.408-112.448-248.832-251.136-248.832-138.688 0-251.136 111.424-251.136 248.832C260.864 474.688 486.08 750.656 512 750.656zM349.824 328.512C349.824 239.744 422.4 167.808 512 167.808c89.6 0 162.176 71.936 162.176 160.704C674.24 417.28 601.6 489.216 512 489.216 422.4 489.216 349.824 417.28 349.824 328.512z" p-id="2997" fill="#d71718"></path><path d="M958.016 560.512c0-22.912-18.816-41.536-41.92-41.536 0 0-111.936 0-152.96 0-3.2 0-6.848-0.192-10.88 6.528-8.064 13.44-7.36 12.224-14.912 24.64-3.52 5.76 1.792 7.744 4.032 7.744 48.96 0 174.784 0 174.784 0 1.408 0 2.624 1.216 2.624 2.624l39.36 341.504c0 1.408-1.216 2.624-2.624 2.624L68.608 904.64c-1.408 0-2.624-1.216-2.624-2.624l39.36-341.504c0-1.408 1.216-2.624 2.624-2.624 0 0 130.048 0 173.44 0 3.584 0 9.216-2.048 2.816-12.416-7.552-12.16-4.608-8.576-12.608-22.08-3.008-4.992-7.104-4.48-12.672-4.48-37.76 0-150.912 0-150.912 0-23.104 0-41.92 18.624-41.92 41.536l-39.36 341.504c0 22.912 18.816 41.536 41.92 41.536l886.784 0c23.104 0 41.92-18.624 41.92-41.536L958.016 560.512z" p-id="2998" fill="#d71718"></path></svg>