<?xml version="1.0" standalone="no"?><!DOCTYPE svg PUBLIC "-//W3C//DTD SVG 1.1//EN" "http://www.w3.org/Graphics/SVG/1.1/DTD/svg11.dtd"><svg t="1508831747179" class="icon" style="" viewBox="0 0 1024 1024" version="1.1" xmlns="http://www.w3.org/2000/svg" p-id="4485" xmlns:xlink="http://www.w3.org/1999/xlink" width="32" height="32"><defs><style type="text/css"></style></defs><path d="M938.666667 228.693333 921.6 232.106667 839.68 238.933333l-23.893333 37.546667-17.066667-6.826667-64.853333-58.026667-10.24-30.72-13.653333-34.133333-40.96-37.546667L624.64 102.4l0 20.48L669.013333 170.666667l23.893333 27.306667-27.306667 13.653333L645.12 204.8 614.4 191.146667l0-23.893333-40.96-17.066667-13.653333 61.44-40.96 10.24 3.413333 34.133333 54.613333 10.24 10.24-54.613333 44.373333 6.826667 20.48 13.653333 34.133333 0 23.893333 44.373333 61.44 61.44-3.413333 23.893333L716.8 354.986667l-85.333333 44.373333-61.44 71.68-6.826667 34.133333-20.48 0-40.96-20.48-40.96 20.48 10.24 40.96 17.066667-20.48 30.72 0-3.413333 37.546667 23.893333 6.826667 23.893333 27.306667 40.96-10.24 47.786667 6.826667 54.613333 13.653333 27.306667 3.413333 47.786667 51.2 88.746667 51.2-58.026667 109.226667L750.933333 853.333333l-23.893333 61.44-88.746667 58.026667-10.24 34.133333C856.746667 955.733333 1024 754.346667 1024 512 1024 406.186667 993.28 307.2 938.666667 228.693333z" p-id="4486" fill="#d71718"></path><path d="M570.026667 778.24l-37.546667-68.266667 34.133333-71.68-34.133333-10.24-37.546667-37.546667L409.6 570.026667 382.293333 512l0 34.133333-13.653333 0-71.68-98.986667 0-81.92L242.346667 279.893333 157.013333 293.546667 98.986667 293.546667 71.68 276.48l37.546667-30.72L71.68 252.586667C27.306667 331.093333 0 416.426667 0 512c0 283.306667 228.693333 512 512 512 20.48 0 44.373333-3.413333 64.853333-3.413333l-6.826667-61.44c0 0 23.893333-92.16 23.893333-95.573333C593.92 860.16 570.026667 778.24 570.026667 778.24z" p-id="4487" fill="#d71718"></path><path d="M191.146667 163.84l92.16-13.653333 40.96-23.893333 47.786667 13.653333 75.093333-3.413333 27.306667-40.96 37.546667 6.826667 92.16-10.24L624.64 68.266667l34.133333-23.893333 51.2 6.826667 17.066667-3.413333C662.186667 17.066667 590.506667 0 512 0 351.573333 0 211.626667 71.68 116.053333 187.733333l0 0L191.146667 163.84zM532.48 51.2l51.2-27.306667 34.133333 20.48-47.786667 37.546667-47.786667 3.413333L505.173333 68.266667 532.48 51.2zM378.88 54.613333l23.893333 10.24 30.72-10.24 17.066667 27.306667-68.266667 17.066667-34.133333-20.48C344.746667 81.92 378.88 61.44 378.88 54.613333z" p-id="4488" fill="#d71718"></path></svg>