<?xml version="1.0" standalone="no"?><!DOCTYPE svg PUBLIC "-//W3C//DTD SVG 1.1//EN" "http://www.w3.org/Graphics/SVG/1.1/DTD/svg11.dtd"><svg t="1508831851939" class="icon" style="" viewBox="0 0 1024 1024" version="1.1" xmlns="http://www.w3.org/2000/svg" p-id="5341" xmlns:xlink="http://www.w3.org/1999/xlink" width="32" height="32"><defs><style type="text/css"></style></defs><path d="M172.896 638.508l167.864-167.864c24.141-24.141 63.453-24.141 87.594 0l12.971 12.971-42.576 42.576-12.971-12.971c-0.681-0.681-1.76-0.681-2.441 0l-167.864 167.864c-0.681 0.681-0.681 1.76 0 2.441l139.479 139.479c0.667 0.667 1.76 0.681 2.441 0l167.864-167.864c0.681-0.681 0.667-1.774 0-2.441l-12.971-12.971 42.576-42.576 12.971 12.971c24.155 24.155 24.141 63.453 0 87.594l-167.864 167.864c-24.141 24.141-63.439 24.155-87.594 0l-139.479-139.479c-24.141-24.141-24.141-63.453 0-87.594z" p-id="5342" fill="#d71718"></path><path d="M470.928 340.476l167.864-167.864c24.155-24.155 63.453-24.141 87.594 0l139.479 139.479c24.155 24.155 24.155 63.439 0 87.594l-167.864 167.864c-24.155 24.155-63.439 24.155-87.594 0l-12.971-12.971 42.576-42.576 12.971 12.971c0.667 0.667 1.774 0.667 2.441 0l167.864-167.864c0.667-0.667 0.667-1.774 0-2.441l-139.479-139.479c-0.681-0.681-1.774-0.667-2.441 0l-167.864 167.864c-0.667 0.667-0.681 1.76 0 2.441l12.971 12.971-42.576 42.576-12.971-12.971c-24.141-24.141-24.155-63.439 0-87.594z" p-id="5343" fill="#d71718"></path><path d="M370.222 668.254c-17.229-17.229-17.244-45.173 0-62.416l235.616-235.616c17.244-17.244 45.173-17.244 62.416 0v0c17.244 17.244 17.244 45.173 0 62.416l-235.616 235.616c-17.229 17.229-45.188 17.229-62.416 0v0z" p-id="5344" fill="#d71718"></path></svg>