<?xml version="1.0" standalone="no"?><!DOCTYPE svg PUBLIC "-//W3C//DTD SVG 1.1//EN" "http://www.w3.org/Graphics/SVG/1.1/DTD/svg11.dtd"><svg t="1498177375859" class="icon" style="" viewBox="0 0 1024 1024" version="1.1" xmlns="http://www.w3.org/2000/svg" p-id="7635" xmlns:xlink="http://www.w3.org/1999/xlink" width="200" height="200"><defs><style type="text/css"></style></defs><path d="M515.481565 180.836592c49.919501 0 90.449016-40.478315 90.449016-90.387576C605.930581 40.611434 565.401066 0 515.481565 0s-90.459255 40.611434-90.459255 90.449016C425.02231 140.368516 465.562064 180.836592 515.481565 180.836592zM722.716613 534.369056M725.051309 530.262857c0 0.163838 0 0.235518 0 0.317437 0 21.053229-17.110869 38.235778-38.051459 38.235778-21.135149 0-38.205058-17.192788-38.205058-38.235778 0-0.081919 0-0.163838 0-0.317437l-0.081919 0L648.712873 323.580764l-24.801032-0.081919 0.204798 649.168548c0 28.466915-22.98857 51.332607-51.301887 51.332607-28.077799 0-50.95373-22.630174-51.260927-50.615814l-0.317437-0.399356 0-418.504615-23.060249 0 0.04096 417.95166c0 28.548835-23.111449 51.568124-51.578364 51.568124-28.620514 0-51.496445-23.01929-51.496445-51.568124l0.235518-647.909041L371.406206 324.522835l0 205.740023-0.081919 0c0.081919 0.552954 0.081919 1.03423 0.081919 1.740783 0 21.053229-16.875351 38.164098-38.092419 38.164098-21.053229 0-38.174338-17.110869-38.174338-38.164098 0-0.706553 0.081919-1.187828 0.081919-1.740783l-0.081919 0L295.139449 307.719163c0 0-4.648914-95.179848 125.223708-97.545265l47.707683 0 42.02454 68.771152 41.9631-68.771152 49.683983 0c0 0 114.98381-1.576944 123.298607 97.545265l0 222.861131M839.113529 301.104189c33.115829 0 60.128679-26.97189 60.128679-60.169638s-27.01285-60.097959-60.128679-60.097959c-33.197748 0-60.128679 26.889971-60.128679 60.097959S805.915781 301.104189 839.113529 301.104189zM896.446716 320.426876l-33.00319 0-27.883241 45.895221-27.924201-45.895221-31.743683 0c-11.714443 0.235518-21.534505 1.730543-30.156498 3.942361l0 72.242478 13.516665 0-0.112639 430.731053c0 18.923331 15.288167 34.303657 34.221738 34.303657s34.272937-15.380326 34.272937-34.303657l-0.081919-277.910821 15.411046 0 0 278.136099 0.235518 0.235518c0.204798 18.769732 15.380326 33.668783 33.945261 33.668783 18.892611 0 34.191018-15.216488 34.191018-33.97598l-0.081919-431.601444 16.435036 0 0 137.450145 0.081919 0c0 0.081919 0 0.081919 0 0.153598 0 14.0389 11.304847 25.394946 25.353986 25.394946s25.282307-11.356046 25.282307-25.394946c0-0.071679 0-0.071679 0-0.153598L978.406856 385.552624C972.948991 319.556484 896.446716 320.426876 896.446716 320.426876zM184.896711 298.257497c-33.238708 0-60.169638-26.889971-60.169638-60.01604 0-33.279667 26.930931-60.169638 60.169638-60.169638 33.115829 0 60.128679 26.889971 60.128679 60.169638C245.02539 271.367526 218.02278 298.257497 184.896711 298.257497zM127.573764 317.744023l33.04415 0 27.842282 45.731383 27.913961-45.731383 31.784642 0c11.591564 0.235518 21.452585 1.576944 30.04386 3.788762l0 72.150318-13.404026 0 0.081919 430.812972c0 19.076929-15.216488 34.303657-34.221738 34.303657-18.892611 0-34.303657-15.216488-34.303657-34.303657l0.163838-277.97226-15.503205 0 0 278.289697-0.194558 0.235518c-0.163838 18.687813-15.380326 33.668783-33.98622 33.668783-18.841412 0-34.139819-15.144809-34.139819-33.98622l0.153598-431.673123L96.301117 393.058469l0 137.532065L96.178238 530.590534c0 0 0 0.153598 0 0.225278 0 13.95698-11.315087 25.323267-25.292547 25.323267-13.97746 0-25.313027-11.356046-25.313027-25.323267 0-0.081919 0-0.153598 0-0.153598l0-147.864121C51.112449 316.791712 127.573764 317.744023 127.573764 317.744023z" p-id="7636" fill="#d71718"></path></svg>