<?xml version="1.0" standalone="no"?><!DOCTYPE svg PUBLIC "-//W3C//DTD SVG 1.1//EN" "http://www.w3.org/Graphics/SVG/1.1/DTD/svg11.dtd"><svg t="1498122986047" class="icon" style="" viewBox="0 0 1024 1024" version="1.1" xmlns="http://www.w3.org/2000/svg" p-id="15490" xmlns:xlink="http://www.w3.org/1999/xlink" width="200" height="200"><defs><style type="text/css"></style></defs><path d="M948.148148 710.314667v-141.520593A57.059556 57.059556 0 0 0 891.088593 512H568.888889V318.577778a190.501926 190.501926 0 0 1-75.851852 0V512H170.837333A56.888889 56.888889 0 0 0 113.777778 568.794074v133.764741a191.905185 191.905185 0 0 1 75.851852 7.755852V587.851852h303.407407v117.57037a190.501926 190.501926 0 0 1 75.851852 0V587.851852h303.407407v114.725926a191.905185 191.905185 0 0 1 75.851852 7.736889zM132.740741 1024a132.740741 132.740741 0 1 1 0-265.481481 132.740741 132.740741 0 0 1 0 265.481481z m398.222222 0a132.740741 132.740741 0 1 1 0-265.481481 132.740741 132.740741 0 0 1 0 265.481481z m360.296296 0a132.740741 132.740741 0 1 1 0-265.481481 132.740741 132.740741 0 0 1 0 265.481481zM530.962963 265.481481a132.740741 132.740741 0 1 1 0-265.481481 132.740741 132.740741 0 0 1 0 265.481481z" p-id="15491" fill="#d71718"></path></svg>