<?xml version="1.0" standalone="no"?><!DOCTYPE svg PUBLIC "-//W3C//DTD SVG 1.1//EN" "http://www.w3.org/Graphics/SVG/1.1/DTD/svg11.dtd"><svg t="1498122098687" class="icon" style="" viewBox="0 0 1024 1024" version="1.1" xmlns="http://www.w3.org/2000/svg" p-id="3844" xmlns:xlink="http://www.w3.org/1999/xlink" width="200" height="200"><defs><style type="text/css"></style></defs><path d="M29.953707 329.977363c13.250792-9.066493 25.805736-17.660218 38.365796-26.248827C214.009653 204.113771 359.719246 104.525612 505.311159 4.765537c4.972245-3.40761 8.202822-3.566222 13.273305-0.091074C675.167708 111.969141 831.875796 219.084741 988.561371 326.232063c1.566682 1.071402 3.103688 2.187829 5.41022 3.814886-1.738597 1.283226-3.124154 2.37407-4.575202 3.367701-157.629063 107.792005-315.270407 215.564567-472.849328 323.429227-3.304256 2.261507-5.5279 2.453888-8.966209 0.100284C349.851505 548.959773 192.047456 441.086927 34.25671 333.193615 33.025673 332.35041 31.86422 331.408969 29.953707 329.977363z" p-id="3845" fill="#d71718"></path><path d="M86.075913 635.120109c21.526269 14.165628 42.661635 28.066219 63.789838 41.978067 118.762871 78.212316 237.542114 156.398026 356.214934 234.746442 4.492314 2.965541 7.416923 2.90312 11.884678-0.064468 137.491421-91.307565 275.092335-182.454472 412.67483-273.622868 2.046612-1.357927 4.120854-2.671852 6.541997-4.238534 18.939351 19.779486 37.740556 39.415708 56.993039 59.523675-2.034333 1.447978-3.667529 2.654456-5.344728 3.799536C831.677275 804.706505 674.506652 912.145469 517.436314 1019.730767c-4.143367 2.837628-6.723122 2.839675-10.858302 0.008186C349.649913 912.282592 192.624601 804.968471 35.617707 697.627744c-1.851161-1.266853-3.634784-2.629897-5.7694-4.180206C48.658721 673.934113 67.133491 654.769634 86.075913 635.120109z" p-id="3846" fill="#d71718"></path><path d="M29.823747 511.690962c18.999726-19.688411 37.498032-38.854936 56.267515-58.305941 142.029784 93.51893 283.809881 186.877201 425.914366 280.44525 141.560086-93.799316 283.084357-187.575096 425.118234-281.688567 18.878976 19.706831 37.671994 39.326681 57.028854 59.533908-2.062985 1.485841-3.797489 2.796696-5.588275 4.022617-157.15118 107.467617-314.318732 214.912721-471.39828 322.483692-3.945869 2.702552-6.488785 2.612501-10.384511-0.057305C349.692892 730.564901 192.521247 623.127983 35.364951 515.669576 33.660122 514.50403 32.007483 513.26276 29.823747 511.690962z" p-id="3847" fill="#d71718"></path></svg>