<?xml version="1.0" standalone="no"?><!DOCTYPE svg PUBLIC "-//W3C//DTD SVG 1.1//EN" "http://www.w3.org/Graphics/SVG/1.1/DTD/svg11.dtd"><svg t="1508747140076" class="icon" style="" viewBox="0 0 1024 1024" version="1.1" xmlns="http://www.w3.org/2000/svg" p-id="15979" xmlns:xlink="http://www.w3.org/1999/xlink" width="64" height="64"><defs><style type="text/css"></style></defs><path d="M958.464 592.896c0-66.048-53.248-119.296-119.296-119.296-18.432 0-35.328 4.096-50.688 11.264l-66.56-76.288c10.752-17.92 16.896-38.4 16.896-60.928 0-66.048-53.248-119.296-119.296-119.296s-119.296 53.248-119.296 119.296c0 31.744 12.288 60.416 32.256 81.408l-73.728 131.072c-7.68-1.536-15.872-2.56-24.576-2.56-22.016 0-42.496 5.632-59.904 15.872l-88.576-98.304c10.752-17.92 16.896-38.912 16.896-61.44 0-66.048-53.248-119.296-119.296-119.296s-119.296 53.248-119.296 119.296 53.248 119.296 119.296 119.296c18.432 0 36.352-4.096 52.224-11.776l91.648 102.4c-8.192 15.872-12.8 34.304-12.8 53.76 0 66.048 53.248 119.296 119.296 119.296S552.96 743.424 552.96 677.376c0-33.28-13.312-62.976-34.816-84.48l72.704-129.024c9.216 2.048 18.432 3.584 28.672 3.584 18.944 0 36.864-4.608 52.736-12.288l65.536 75.264c-11.264 18.432-17.92 39.424-17.92 62.464 0 66.048 53.248 119.296 119.296 119.296s119.296-53.248 119.296-119.296z m-825.856-179.2c0-27.648 22.528-50.176 50.176-50.176s50.176 22.528 50.176 50.176-22.528 50.176-50.176 50.176-50.176-22.528-50.176-50.176z m300.544 313.344c-27.648 0-50.176-22.528-50.176-50.176s22.528-50.176 50.176-50.176 50.176 22.528 50.176 50.176-22.528 50.176-50.176 50.176z m185.856-429.568c27.648 0 50.176 22.528 50.176 50.176s-22.528 50.176-50.176 50.176-50.176-22.528-50.176-50.176 22.528-50.176 50.176-50.176z m220.16 245.248c27.648 0 50.176 22.528 50.176 50.176s-22.528 50.176-50.176 50.176-50.176-22.528-50.176-50.176 22.528-50.176 50.176-50.176z" p-id="15980" fill="#d71718"></path></svg>