<?xml version="1.0" standalone="no"?><!DOCTYPE svg PUBLIC "-//W3C//DTD SVG 1.1//EN" "http://www.w3.org/Graphics/SVG/1.1/DTD/svg11.dtd"><svg t="1498312864968" class="icon" style="" viewBox="0 0 1024 1024" version="1.1" xmlns="http://www.w3.org/2000/svg" p-id="3450" xmlns:xlink="http://www.w3.org/1999/xlink" width="200" height="200"><defs><style type="text/css"></style></defs><path d="M576.049 549.803c21.034-21.544 21.034-56.478 0-78.026l-383.229-393.466c-21.036-21.546-55.142-21.546-76.179 0s-21.037 56.48 0 78.026l345.23 354.454-345.23 354.454c-21.037 21.549-21.037 56.482 0 78.028 21.036 21.547 55.142 21.547 76.179 0l383.228-393.467zM448.949 156.337l345.23 354.454-345.23 354.454c-21.037 21.549-21.037 56.482 0 78.028 21.036 21.547 55.142 21.547 76.179 0l383.228-393.468c21.034-21.544 21.034-56.478 0-78.026l-383.229-393.466c-21.036-21.546-55.142-21.546-76.179 0-21.036 21.547-21.037 56.482 0 78.026z" p-id="3451" fill="#d71718"></path></svg>