<?xml version="1.0" standalone="no"?><!DOCTYPE svg PUBLIC "-//W3C//DTD SVG 1.1//EN" "http://www.w3.org/Graphics/SVG/1.1/DTD/svg11.dtd"><svg t="1498312874167" class="icon" style="" viewBox="0 0 1024 1024" version="1.1" xmlns="http://www.w3.org/2000/svg" p-id="4198" xmlns:xlink="http://www.w3.org/1999/xlink" width="200" height="200"><defs><style type="text/css"></style></defs><path d="M439.126 468.989c-23.932 24.512-23.932 64.258 0 88.777l436.030 447.677c23.934 24.514 62.739 24.514 86.674 0s23.935-64.261 0-88.777l-392.795-403.29 392.795-403.29c23.935-24.518 23.935-64.263 0-88.779-23.934-24.515-62.739-24.515-86.674 0l-436.029 447.678zM583.737 916.666l-392.795-403.29 392.795-403.29c23.935-24.518 23.935-64.263 0-88.779-23.934-24.515-62.739-24.515-86.674 0l-436.029 447.679c-23.932 24.512-23.932 64.258 0 88.777l436.030 447.677c23.934 24.514 62.739 24.514 86.674 0 23.934-24.515 23.935-64.263 0-88.777z" p-id="4199" fill="#d71718"></path></svg>