<?xml version="1.0" encoding="utf-8"?>
<!-- Generator: Adobe Illustrator 16.0.0, SVG Export Plug-In . SVG Version: 6.00 Build 0)  -->
<!DOCTYPE svg PUBLIC "-//W3C//DTD SVG 1.1//EN" "http://www.w3.org/Graphics/SVG/1.1/DTD/svg11.dtd">
<svg version="1.1" id="图层_1" xmlns="http://www.w3.org/2000/svg" xmlns:xlink="http://www.w3.org/1999/xlink" x="0px" y="0px"
	 width="800px" height="800px" viewBox="0 0 800 800" enable-background="new 0 0 800 800" xml:space="preserve">
<ellipse fill="#CA1D1D" cx="400" cy="400" rx="390" ry="187"/>
<g>
	<path fill="#FFFFFF" d="M199.819,356.456c-23.447,0-41.818,17.558-41.818,39.965c0,22.768,17.849,39.951,41.512,39.951
		c23.456,0,41.828-17.552,41.828-39.951C241.341,373.644,223.483,356.456,199.819,356.456 M225.182,396.728
		c0,15.318-10.662,26.437-25.364,26.437c-14.386,0-25.68-11.743-25.68-26.743c0-15.515,10.68-26.785,25.373-26.785
		c14.386,0,25.671,11.765,25.671,26.785V396.728z"/>
	<rect x="261.631" y="336.273" fill="#FFFFFF" width="16.464" height="97.439"/>
	<path fill="#FFFFFF" d="M340.205,356.465c-23.446,0-41.839,17.549-41.839,39.956c0,22.768,17.857,39.951,41.53,39.951
		c11.846,0,20.525-6.765,23.698-9.666l2.134-1.926v8.933h15.986v-37.616C381.717,373.499,363.878,356.465,340.205,356.465
		 M340.205,423.174c-14.404,0-25.671-11.762-25.671-26.753c0-15.515,10.671-26.774,25.364-26.774
		c14.387,0,25.662,11.743,25.662,26.774C365.561,411.918,354.908,423.174,340.205,423.174"/>
	<path fill="#FFFFFF" d="M74.215,424.777l2.116,1.915c3.183,2.911,11.873,9.677,23.717,9.677c23.662,0,41.493-17.181,41.493-39.948
		c0-22.407-18.364-39.966-41.81-39.966c-23.681,0-41.521,17.044-41.521,39.64v67.632h16.004V424.777z M100.048,369.648
		c14.685,0,25.346,11.258,25.346,26.772c0,15.002-11.275,26.748-25.662,26.748c-14.693,0-25.353-11.251-25.353-26.748
		C74.379,381.411,85.644,369.648,100.048,369.648"/>
	<path fill="#FFFFFF" d="M475.289,424.777l2.116,1.915c3.182,2.911,11.872,9.677,23.716,9.677c23.663,0,41.494-17.181,41.494-39.948
		c0-22.407-18.365-39.966-41.81-39.966c-23.682,0-41.521,17.044-41.521,39.64v67.632h16.005V424.777z M501.121,369.648
		c14.685,0,25.346,11.258,25.346,26.772c0,15.002-11.276,26.748-25.661,26.748c-14.694,0-25.353-11.251-25.353-26.748
		C475.453,381.411,486.718,369.648,501.121,369.648"/>
	<path fill="#FFFFFF" d="M674.462,424.777l2.116,1.915c3.183,2.911,11.873,9.677,23.716,9.677c23.663,0,41.495-17.181,41.495-39.948
		c0-22.407-18.365-39.966-41.81-39.966c-23.682,0-41.521,17.044-41.521,39.64v67.632h16.004V424.777z M700.294,369.648
		c14.686,0,25.346,11.258,25.346,26.772c0,15.002-11.275,26.748-25.66,26.748c-14.695,0-25.354-11.251-25.354-26.748
		C674.626,381.411,685.891,369.648,700.294,369.648"/>
	<path fill="#FFFFFF" d="M600.492,356.465c-9.611,0-18.375,2.986-25.372,8.055v-28.246h-16.466v97.439h16.466h0.009v-37.452
		c0-15.425,10.527-26.61,25.048-26.61c14.45,0,25.362,11.439,25.362,26.61v37.452h16.458v-37.452
		C641.997,373.952,623.77,356.465,600.492,356.465z"/>
	<path fill="#FFFFFF" d="M402.496,433.713h16.466v-37.616c0-15.099,9.573-25.809,23.436-26.42v-13.201
		c-22.829,0.611-39.901,17.439-39.901,39.621V433.713z"/>
</g>
</svg>
