<?xml version="1.0" standalone="no"?><!DOCTYPE svg PUBLIC "-//W3C//DTD SVG 1.1//EN" "http://www.w3.org/Graphics/SVG/1.1/DTD/svg11.dtd"><svg t="1508832584630" class="icon" style="" viewBox="0 0 1024 1024" version="1.1" xmlns="http://www.w3.org/2000/svg" p-id="3981" xmlns:xlink="http://www.w3.org/1999/xlink" width="32" height="32"><defs><style type="text/css"></style></defs><path d="M512.320512 2.808832c-280.869888 0-508.589056 228.149248-508.589056 509.554688 0 281.416704 227.719168 509.520896 508.589056 509.520896 280.930304 0 508.598272-228.104192 508.598272-509.520896C1020.918784 230.959104 793.250816 2.808832 512.320512 2.808832zM658.177024 527.541248 552.594432 527.541248c0 168.989696 0 377.18016 0 377.18016L396.097536 904.721408c0 0 0-206.076928 0-377.18016l-74.406912 0L321.690624 394.268672l74.406912 0 0-86.249472c0-61.75744 29.27104-158.256128 157.949952-158.256128l115.913728 0.461824 0 129.399808c0 0-70.467584 0-84.156416 0-13.712384 0-33.211392 6.821888-33.211392 36.313088l0 78.329856 119.303168 0L658.177024 527.541248z" p-id="3982" fill="#d71718"></path></svg>