<?xml version="1.0" standalone="no"?><!DOCTYPE svg PUBLIC "-//W3C//DTD SVG 1.1//EN" "http://www.w3.org/Graphics/SVG/1.1/DTD/svg11.dtd"><svg t="1508830935232" class="icon" style="" viewBox="0 0 1024 1024" version="1.1" xmlns="http://www.w3.org/2000/svg" p-id="1557" xmlns:xlink="http://www.w3.org/1999/xlink" width="32" height="32"><defs><style type="text/css"></style></defs><path d="M254.368 397.408l0-5.28c0-20.992 16.832-38.112 37.344-38.112l29.888 0c20.576 0 37.344 17.12 37.344 38.112l0 5.568c0 21.024 5.248 23.04 25.76 23.04l260.192 0c19.008 0 20.896-2.592 20.896-20.128l0-8.48c0-20.992 16.8-38.112 37.344-38.112l29.056 0c20.544 0 37.344 17.12 37.344 38.112l0 6.656c0 18.88 6.272 21.952 24.544 21.952l143.584 0c19.456 0 24.96-5.376 24.96-24.384l0-42.592c0-41.952-33.6-76.256-74.688-76.256l-750.624 0c-41.088 0-74.688 34.304-74.688 76.256l0 39.936c0 21.568 6.176 27.04 29.28 27.04l135.68 0C249.344 420.704 254.368 418.4 254.368 397.408L254.368 397.408zM769.568 498.432l0 8.096c0 20.992-16.8 38.208-37.344 38.208L703.168 544.736c-20.544 0-37.344-17.216-37.344-38.208l0-7.584c0-16.512-4.608-20.992-21.248-20.992l-258.88 0c-21.248 0-26.752 4.672-26.752 23.712l0 4.864c0 20.992-16.8 38.208-37.344 38.208l-29.888 0c-20.512 0-37.344-17.216-37.344-38.208l0-3.072c0-22.272-5.44-25.536-25.76-25.536l-137.344 0c-22.72 0-28.608 5.728-28.608 28.608l0 381.184c0 41.984 33.6 76.288 74.688 76.288L888 964c41.088 0 74.688-34.304 74.688-76.288L962.688 500.8c0-17.152-7.168-22.88-22.976-22.88L795.104 477.92C775.008 477.952 769.568 481.472 769.568 498.432L769.568 498.432zM335.008 474.432c0 20.576-12.576 37.344-27.904 37.344-15.328 0-27.904-16.768-27.904-37.344l0-45.952c0-20.544 12.576-37.344 27.904-37.344 15.328 0 27.904 16.8 27.904 37.344L335.008 474.432 335.008 474.432zM746.016 474.432c0 20.576-12.544 37.344-27.904 37.344-15.328 0-27.904-16.768-27.904-37.344l0-45.952c0-20.544 12.576-37.344 27.904-37.344 15.328 0 27.904 16.8 27.904 37.344L746.016 474.432 746.016 474.432zM307.52 290.976c31.328-84.768 111.488-145.152 205.536-145.152 94.016 0 174.24 60.384 205.568 145.152 0 0 6.656 27.968 45.376 27.968 38.784 0 38.688-27.968 38.688-27.968C768.544 160.352 651.808 64 513.056 64s-255.456 96.352-289.6 226.976c0 0-2.176 24.544 37.952 24.544C301.44 315.488 307.52 290.976 307.52 290.976L307.52 290.976zM286.56 314.112" p-id="1558" fill="#d71718"></path></svg>