<?xml version="1.0" standalone="no"?><!DOCTYPE svg PUBLIC "-//W3C//DTD SVG 1.1//EN" "http://www.w3.org/Graphics/SVG/1.1/DTD/svg11.dtd"><svg t="1498440893926" class="icon" style="" viewBox="0 0 1024 1024" version="1.1" xmlns="http://www.w3.org/2000/svg" p-id="2360" xmlns:xlink="http://www.w3.org/1999/xlink" width="200" height="200"><defs><style type="text/css"></style></defs><path d="M459.717594 489.486638C459.717594 507.779648 445.748834 519.534723 422.170362 519.534723L403.611396 519.534723 403.611396 461.849002C407.045795 461.221623 413.55134 460.297068 424.977323 460.297068 446.673479 460.660285 459.717594 470.269068 459.717594 489.486638L459.717594 489.486638ZM1023.850723 511.808072C1023.850723 551.497961 1008.329878 588.84344 980.359337 616.877317L917.483408 679.74716 917.483408 768.603644C917.483408 850.459915 850.776805 917.193085 768.879589 917.193085L680.014503 917.193085 617.204623 980.062928C589.068964 1008.129821 551.752892 1023.616144 512.026141 1023.616144 472.299385 1023.616144 434.983313 1008.129821 406.88068 980.029907L344.103821 917.292146 255.205713 917.292146C215.478958 917.292146 178.195911 901.805823 150.093277 873.80497 121.990643 845.639016 106.601892 808.458633 106.601892 768.702704L106.601892 679.74716 43.725964 616.976378C15.656353 588.87646 0.234579 551.597021 0.234579 511.874112 0.234579 472.151199 15.755422 434.83874 43.725964 406.804868L106.601892 343.968044 106.601892 255.078539C106.601892 173.156228 173.308496 106.489099 255.205713 106.489099L344.070798 106.489099 406.946726 43.586236C434.983313 15.519342 472.26636 0 512.026141 0 551.785917 0 589.068964 15.486322 617.171599 43.586236L679.948458 106.357019 768.846565 106.357019C808.507276 106.357019 845.856368 121.810321 873.925978 149.844195 902.061637 177.97713 917.450388 215.256569 917.450388 254.94646L917.450388 343.835965 980.326313 406.705808C1008.329878 434.772704 1023.850723 472.085163 1023.850723 511.808072L1023.850723 511.808072ZM321.251856 426.880952 193.584662 426.880952 193.584662 635.698646 241.005792 635.698646 241.005792 551.729102 316.001187 551.729102 316.001187 513.293966 241.005792 513.293966 241.005792 465.580245 321.317902 465.580245 321.317902 426.847932 321.251856 426.880952 321.251856 426.880952 321.251856 426.880952ZM514.535894 635.698646C510.507077 627.641797 504.034556 600.433419 497.495986 576.857227 492.212297 557.672678 484.187688 543.672253 469.558469 537.794713L469.558469 536.903178C487.523022 530.398263 506.44524 512.138269 506.44524 485.458209 506.44524 466.240643 499.609464 451.678876 487.225811 441.772916 472.365429 430.017841 450.669271 425.329018 419.660608 425.329018 394.530051 425.329018 371.94227 427.211149 356.751657 429.687639L356.751657 635.698646 403.54535 635.698646 403.54535 553.611233 417.84434 553.611233C437.063766 553.941435 446.04604 561.073727 451.593921 587.126409 457.802255 612.815873 462.755717 629.887146 466.124071 635.764686L514.535894 635.698646 514.535894 635.698646 514.535894 635.698646ZM673.707095 596.999353 587.781067 596.999353 587.781067 547.403496 664.658776 547.403496 664.658776 508.968365 587.781067 508.968365 587.781067 465.580245 669.381076 465.580245 669.381076 426.847932 540.425982 426.847932 540.425982 635.665625 673.707095 635.665625 673.707095 596.999353 673.707095 596.999353 673.707095 596.999353ZM839.08664 596.999353 753.226651 596.999353 753.226651 547.403496 830.071341 547.403496 830.071341 508.968365 753.226651 508.968365 753.226651 465.580245 834.760616 465.580245 834.760616 426.847932 705.871567 426.847932 705.871567 635.665625 839.08664 635.665625 839.08664 596.999353 839.08664 596.999353 839.08664 596.999353Z" p-id="2361" fill="#d71718"></path></svg>