<?xml version="1.0" standalone="no"?><!DOCTYPE svg PUBLIC "-//W3C//DTD SVG 1.1//EN" "http://www.w3.org/Graphics/SVG/1.1/DTD/svg11.dtd"><svg t="1508747352333" class="icon" style="" viewBox="0 0 1497 1024" version="1.1" xmlns="http://www.w3.org/2000/svg" p-id="24357" xmlns:xlink="http://www.w3.org/1999/xlink" width="93.5625" height="64"><defs><style type="text/css"></style></defs><path d="M409.921772 269.312C440.120162 238.828308 440.120162 189.44 409.921772 158.956308L408.907382 157.932308C378.708992 127.448615 329.782902 127.448615 299.584512 157.932308L22.648832 437.405538C-7.549637 467.889231-7.549637 517.356308 22.648832 547.84L299.584512 827.313231C329.782902 857.796923 378.708992 857.796923 408.907382 827.313231L409.921772 826.289231C440.120162 795.805538 440.120162 746.417231 409.921772 715.933538L243.401413 547.84C213.203023 517.356308 213.203023 467.889231 243.401413 437.405538L409.921772 269.312ZM1473.966553 437.405538 1197.030873 157.932308C1166.910543 127.448615 1117.906393 127.448615 1087.708002 157.932308L1086.693612 158.956308C1056.495222 189.44 1056.495222 238.828308 1086.693612 269.312L1253.292032 437.405538C1283.490422 467.889231 1283.490422 517.356308 1253.292032 547.84L1086.693612 715.933538C1056.495222 746.417231 1056.495222 795.805538 1086.693612 826.289231L1087.708002 827.313231C1117.906393 857.796923 1166.910543 857.796923 1197.030873 827.313231L1473.966553 547.84C1504.165022 517.356308 1504.165022 467.889231 1473.966553 437.405538L1473.966553 437.405538ZM1008.983355 110.920468 610.223655 964.029834C597.30558 990.849969 574.640837 1024 545.401068 1024L543.853962 1024C486.998804 1024 449.946309 946.782523 475.086297 894.723938L871.525376 49.685268C884.44353 22.943902 932.325612 1.977895 932.325612 1.977895L932.325612 0C1009.679596 0 1034.04607 58.862671 1008.983355 110.920468L1008.983355 110.920468Z" p-id="24358" fill="#d71718"></path></svg>