<?xml version="1.0" standalone="no"?><!DOCTYPE svg PUBLIC "-//W3C//DTD SVG 1.1//EN" "http://www.w3.org/Graphics/SVG/1.1/DTD/svg11.dtd"><svg t="1498122781162" class="icon" style="" viewBox="0 0 1024 1024" version="1.1" xmlns="http://www.w3.org/2000/svg" p-id="6893" xmlns:xlink="http://www.w3.org/1999/xlink" width="200" height="200"><defs><style type="text/css"></style></defs><path d="M345.6 800c-19.2 0-57.6-12.8-89.6-44.8-38.4-32-38.4-64-51.2-89.6 0-6.4-6.4-19.2-19.2-19.2S121.6 697.6 115.2 704s-6.4 25.6 12.8 25.6 44.8 12.8 57.6 44.8c6.4 25.6 0 32-25.6 70.4-6.4 12.8 6.4 25.6 19.2 19.2 38.4-25.6 64-25.6 89.6-19.2C281.6 851.2 281.6 896 300.8 896c12.8 0 51.2-44.8 64-57.6C377.6 832 364.8 800 345.6 800z" p-id="6894" fill="#d71718"></path><path d="M953.6 70.4c-6.4-6.4-256-19.2-467.2 172.8C467.2 262.4 448 281.6 435.2 300.8 409.6 288 300.8 243.2 198.4 326.4c-96 76.8-128 134.4-128 172.8 0 38.4 51.2 51.2 166.4 44.8 89.6 25.6 12.8 96 83.2 153.6 70.4 51.2 108.8 19.2 134.4 44.8 25.6 25.6 38.4 44.8 25.6 134.4-19.2 76.8 38.4 108.8 96 51.2 76.8-64 160-128 172.8-198.4 6.4-57.6-6.4-128-12.8-160 19.2-12.8 38.4-32 51.2-51.2C947.2 332.8 966.4 76.8 953.6 70.4zM665.6 460.8c-57.6 0-108.8-51.2-108.8-108.8s51.2-108.8 108.8-108.8c57.6 0 108.8 51.2 108.8 108.8S723.2 460.8 665.6 460.8z" p-id="6895" fill="#d71718"></path></svg>