<?xml version="1.0" encoding="utf-8"?>
<!-- Generator: Adobe Illustrator 16.0.0, SVG Export Plug-In . SVG Version: 6.00 Build 0)  -->
<!DOCTYPE svg PUBLIC "-//W3C//DTD SVG 1.1//EN" "http://www.w3.org/Graphics/SVG/1.1/DTD/svg11.dtd">
<svg version="1.1" id="图层_1" xmlns="http://www.w3.org/2000/svg" xmlns:xlink="http://www.w3.org/1999/xlink" x="0px" y="0px"
	 width="200px" height="60px" viewBox="0 0 200 60" enable-background="new 0 0 200 60" xml:space="preserve">
<g>
	<g>
		<path fill="#040000" d="M56.249,26.74C54.764,14.193,44.813,4.243,32.268,2.758V1.286h-6.521v1.472
			C13.2,4.244,3.25,14.193,1.765,26.74H0.293v6.521h1.472C3.25,45.807,13.2,55.757,25.746,57.242v1.472h6.521v-1.472
			c12.546-1.485,22.496-11.436,23.981-23.981h1.471V26.74H56.249z M29.007,56.421C14.438,56.421,2.586,44.568,2.586,30
			S14.438,3.58,29.007,3.58S55.428,15.432,55.428,30S43.575,56.421,29.007,56.421"/>
		<polygon fill="#040000" points="24.923,20.874 27.575,20.874 28.864,18.828 34.549,28.681 35.949,26.331 28.864,14.18 		"/>
		<polygon fill="#040000" points="19.262,28.68 20.597,26.388 19.478,24.245 30.852,24.292 29.526,21.897 15.461,21.906 		"/>
		<polygon fill="#040000" points="23.396,37.375 22.05,35.089 19.633,35.018 25.238,25.121 22.503,25.105 15.628,37.376 		"/>
		<polygon fill="#040000" points="32.777,38.434 30.125,38.434 28.837,40.48 23.153,30.628 21.751,32.977 28.837,45.128 		"/>
		<polygon fill="#040000" points="38.438,30.628 37.104,32.92 38.224,35.063 26.85,35.017 28.174,37.411 42.24,37.402 		"/>
		<polygon fill="#040000" points="34.306,21.933 35.65,24.218 38.068,24.291 32.462,34.187 35.198,34.203 42.073,21.932 		"/>
		
			<rect x="29.793" y="8.776" transform="matrix(-0.9953 -0.0967 0.0967 -0.9953 61.6506 20.8512)" fill="#040000" width="3.075" height="0.312"/>
		
			<rect x="29.93" y="7.361" transform="matrix(-0.9953 -0.0967 0.0967 -0.9953 62.0601 18.0425)" fill="#040000" width="3.075" height="0.312"/>
		
			<rect x="29.861" y="8.059" transform="matrix(-0.9953 -0.0967 0.0967 -0.9953 61.8553 19.4471)" fill="#040000" width="3.075" height="0.331"/>
		<polygon fill="#040000" points="37.702,10.076 35.313,9.308 34.882,9.885 36.077,10.792 37.488,10.743 		"/>
		
			<rect x="43.283" y="14.672" transform="matrix(-0.6755 0.7374 -0.7374 -0.6755 84.2666 -6.7298)" fill="#040000" width="0.662" height="1.013"/>
		
			<rect x="26.738" y="9.191" transform="matrix(0.1141 0.9935 -0.9935 0.1141 33.9372 -17.805)" fill="#040000" width="0.428" height="1.869"/>
		<path fill="#040000" d="M21.451,10.996c1.055-0.366,1.419-0.682,1.124-1.535c-0.295-0.852-0.777-0.874-1.832-0.509
			s-1.419,0.682-1.124,1.533C19.914,11.338,20.396,11.361,21.451,10.996"/>
		<path fill="#040000" d="M16.288,13.538l1.534-0.938c0.356-0.218,0.341-0.454,0.242-0.615c-0.099-0.161-0.304-0.288-0.661-0.069
			l-1.964,1.201l0.211,0.344C15.749,13.622,15.931,13.756,16.288,13.538"/>
		<line fill="#040000" x1="24.253" y1="8.879" x2="24.139" y2="8.458"/>
		<line fill="#040000" x1="20.227" y1="9.526" x2="20.342" y2="9.947"/>
		
			<rect x="16.516" y="13.475" transform="matrix(-0.8568 0.5156 -0.5156 -0.8568 40.0484 16.394)" fill="#040000" width="2.464" height="0.564"/>
		<line fill="#040000" x1="24.003" y1="7.963" x2="23.896" y2="7.566"/>
		<line fill="#040000" x1="19.983" y1="8.635" x2="20.092" y2="9.032"/>
		
			<rect x="29.194" y="49.811" transform="matrix(0.9999 -0.0156 0.0156 0.9999 -0.7838 0.4729)" fill="#040000" width="1.312" height="1.104"/>
		
			<rect x="27.483" y="49.839" transform="matrix(0.9999 -0.0171 0.0171 0.9999 -0.8585 0.4886)" fill="#040000" width="1.255" height="1.103"/>
		
			<rect x="27.508" y="51.361" transform="matrix(-0.0163 -0.9999 0.9999 -0.0163 -23.3859 80.9698)" fill="#040000" width="1.255" height="1.255"/>
		<path fill="#040000" d="M54.457,27.96C53.504,13.927,41.313,3.285,27.28,4.237C13.247,5.19,2.605,17.382,3.557,31.415
			C4.51,45.447,16.701,56.089,30.734,55.137C44.767,54.185,55.408,41.993,54.457,27.96 M44.941,12.226l0.575,0.525l0.048-0.14
			l0.437,0.214l-0.097,0.28l0.574,0.525l-0.275,0.302l-1.538-1.405L44.941,12.226z M44.822,12.961l0.031,0.688l-0.421-0.174
			l-0.018-0.702L44.822,12.961z M44.662,13.974l1.095-0.16l0.224,0.39l-0.931,0.125l0.46,0.42l-0.302,0.331l-1.624-1.483
			l0.302-0.331L44.662,13.974z M44.859,15.288l-1.024,1.121l-1.465-1.339l1.023-1.121L44.859,15.288z M39.994,9.605l2.157,0.51
			l1.511,1.622l-0.37,0.211l-1.373-1.473l-1.926-0.444L39.994,9.605z M39.27,11.278l1.447,0.841l0.372-0.64l-1.498-0.871l0.216-0.37
			l3.398,1.976l-0.215,0.37l-1.497-0.871l-0.372,0.64l1.446,0.841l-0.215,0.37l-1.446-0.841l-0.401,0.69l1.548,0.899l-0.215,0.371
			l-3.483-2.024l0.216-0.37l1.53,0.89l0.401-0.69l-1.447-0.84L39.27,11.278z M35.028,7.458l1.778,0.572l-0.008-0.167l0.487,0.074
			l0.021,0.253l1.575,0.506l-0.256,0.797l-0.464-0.148l0.126-0.389l-2.946-0.947l-0.125,0.389l-0.444-0.143L35.028,7.458z
			 M34.292,9.94l0.57-0.778L34.479,9.04l0.13-0.408l0.519,0.167l0.219-0.297l0.396,0.229l-0.16,0.214l2.955,0.95l-0.132,0.407
			l-0.24-0.077l-0.292,0.908l-1.31,0.028l1.309,0.993l-0.467,0.116l-1.464-1.095l-1.816,0.04l-0.256-0.348l1.588-0.055L34.292,9.94z
			 M29.526,6.762l1.646,0.16l0.123-0.261l0.495,0.146l-0.057,0.17l1.782,0.173l-0.244,2.518l-3.99-0.387L29.526,6.762z
			 M33.247,10.741l-0.393,0.216l-0.267-0.886l0.414-0.233L33.247,10.741z M32.121,10.456l-0.042,0.425l-1.763-0.171l0.102-1.046
			l0.484,0.047l-0.06,0.62L32.121,10.456z M31.511,9.888l0.379-0.276l0.172,0.447l-0.379,0.276L31.511,9.888z M29.477,9.495
			l0.361,0.309l-0.432,0.818l-0.344-0.287L29.477,9.495z M28.437,10.6l-2.822,0.327l-0.15-1.295l2.823-0.327L28.437,10.6z
			 M28.237,8.879l-2.803,0.325l-0.05-0.425l2.804-0.324L28.237,8.879z M25.338,8.373l-0.049-0.426l2.803-0.325l0.049,0.425
			L25.338,8.373z M26.257,6.836l0.489-0.174l0.131,0.279l1.237-0.144l0.049,0.425l-3.035,0.351l-0.049-0.425l1.256-0.146
			L26.257,6.836z M24.358,7.016l0.438,0.224l-0.337,1.606l0.265-0.03L24.977,11l-0.483,0.056L24.25,8.965l-0.249-0.124L24.358,7.016
			z M20.522,8.317c1.488-0.516,2.324-0.294,2.74,0.906c0.416,1.201-0.104,1.892-1.591,2.407c-1.488,0.516-2.324,0.294-2.74-0.907
			C18.517,9.524,19.035,8.833,20.522,8.317 M14.862,11.139l2.27-1.388l0.332,0.544l-2.299,1.405
			c-0.356,0.219-0.331,0.424-0.231,0.586l0.187,0.305l1.935-1.182c0.803-0.491,1.339-0.312,1.644,0.187
			c0.304,0.497,0.22,1.057-0.584,1.548l-1.475,0.901c-0.804,0.491-1.318,0.298-1.623-0.2L14.3,12.674
			C13.996,12.177,14.059,11.63,14.862,11.139 M11.82,13.474c0.9-0.838,1.4-0.418,1.573-0.232c0.292,0.313,0.276,0.641,0.096,0.958
			c0.435-0.221,0.784-0.145,1.049,0.14c0.366,0.394,0.343,0.94-0.347,1.581l-1.899,1.768l-0.438-0.471l1.954-1.818
			c0.307-0.286,0.286-0.505,0.15-0.65c-0.136-0.146-0.376-0.208-0.683,0.077l-1.882,1.751l-0.435-0.467l1.846-1.717
			c0.248-0.23,0.312-0.433,0.148-0.607c-0.152-0.165-0.36-0.154-0.627,0.093l-1.9,1.768l-0.438-0.471L11.82,13.474z M7.469,40.075
			c-0.952-2.119-1.606-4.414-1.901-6.839c-0.622-5.11,0.441-10.044,2.749-14.245c0.203,0.198,0.406,0.394,0.611,0.589
			c-2.155,4.012-3.14,8.702-2.548,13.557c0.284,2.338,0.914,4.552,1.833,6.596C7.965,39.849,7.718,39.963,7.469,40.075 M9.41,39.165
			c-0.858-1.919-1.449-3.995-1.715-6.188c-0.542-4.446,0.319-8.747,2.234-12.456c0.078,0.073,0.156,0.145,0.235,0.217
			c-1.86,3.638-2.693,7.849-2.163,12.203c0.262,2.158,0.842,4.201,1.686,6.09C9.596,39.075,9.503,39.12,9.41,39.165 M9.38,32.771
			c0.243,1.998,0.778,3.89,1.555,5.641c-0.045,0.022-0.09,0.045-0.134,0.067c-0.784-1.765-1.323-3.674-1.568-5.689
			c-0.485-3.98,0.241-7.833,1.888-11.19c0.038,0.034,0.076,0.068,0.115,0.102C9.615,25.025,8.9,28.836,9.38,32.771 M16.005,48.031
			l-1.216-0.4l0.88,1.341l-0.467-0.046l-0.99-1.486l-1.686-0.557l-0.122-0.404l1.48,0.469l-0.79-1.186l0.78-0.529l-0.313-0.239
			l0.254-0.333l0.423,0.324l0.299-0.202l0.29,0.34l-0.218,0.146l2.41,1.841l-0.254,0.333l-0.196-0.15L16.005,48.031z M17.729,46.118
			l-0.496,0.649l-0.379-0.289l0.243-0.316l-2.403-1.835l-0.243,0.317l-0.362-0.278l0.496-0.65l1.451,1.109l0.047-0.155l0.425,0.228
			l-0.063,0.239L17.729,46.118z M21.201,49.387l-1.535-0.715l-0.305,0.654l1.482,0.691l-0.177,0.38l-1.482-0.691l-0.329,0.706
			l1.585,0.739l-0.177,0.38l-3.568-1.664l0.178-0.379l1.568,0.731l0.329-0.707l-1.482-0.69l0.177-0.38l1.482,0.69l0.306-0.654
			l-1.534-0.716l0.177-0.378l3.482,1.623L21.201,49.387z M21.438,48.742l-1.465-1.313l-1.914-0.263l-0.037-0.417l2.145,0.308
			l1.614,1.444L21.438,48.742z M27.05,53.053l-0.059-3.614l1.73-0.027l-0.005-0.342l0.456-0.009l0.006,0.342l1.769-0.028
			l0.059,3.614L27.05,53.053z M36.097,52.066l-1.026-0.42l-0.461,0.742l-0.412-0.104l0.515-0.841l-0.393-1.445l-1.205,0.263
			l0.143,0.651l0.528-0.253l0.23,0.341l-0.671,0.319l0.279,1.283l-1.245,0.271l-0.089-0.409l0.799-0.174l-0.168-0.771l-0.635,0.302
			l-0.229-0.339l0.775-0.369l-0.164-0.757l-0.8,0.174l-0.089-0.408l0.8-0.175l-0.137-0.627l-0.624,0.17l-0.188-0.328l1.745-0.478
			l0.207,0.325l-0.699,0.189l0.142,0.651l1.185-0.258l-0.265-0.973l0.407-0.188l0.285,1.067l1.064-0.231l0.089,0.409l-1.046,0.228
			l0.276,1.032l0.483-0.788l0.416,0.122l-0.627,1.011l1.043,0.456L36.097,52.066z M34.796,48.417l0.366-0.196l0.489,0.457
			l-0.361,0.216L34.796,48.417z M36.047,48.134l1.659-0.764l-0.124-0.132l0.408-0.25l0.165,0.176l1.485-0.686l0.382,0.83
			l-0.433,0.199l-0.206-0.449l-2.747,1.265l0.207,0.449l-0.415,0.191L36.047,48.134z M38.188,51.19l-1.04-0.485l0.334-0.32
			l1.047,0.501L38.188,51.19z M39.807,50.569l-0.175-0.38l0.657-0.302l-0.565-1.228l-2.867,1.321l-0.175-0.38l2.867-1.32
			l-0.167-0.363l0.414-0.19l0.168,0.362l0.414-0.19l0.175,0.379l-0.414,0.192l0.739,1.605L39.807,50.569z M42.353,49.257
			l-0.252-0.333l0.273-0.207l-0.527-0.696l-0.205,0.296l-0.313-0.288l0.25-0.363l-0.685-0.905l-0.318,0.241l-0.252-0.334
			l0.318-0.241l-0.367-0.486l0.364-0.274l0.367,0.486l0.272-0.207l0.253,0.333l-0.273,0.207l0.593,0.783l0.192-0.28l0.329,0.276
			l-0.251,0.361l0.869,1.149L42.353,49.257z M43.456,47.279l0.201,0.991l-0.406,0.188l-0.197-0.923l-1.686-2.23l0.818-0.62
			l-0.148-0.102l0.363-0.371l0.21,0.152l0.773-0.585l1.079,1.426l-1.639,1.239L43.456,47.279z M30.204,47.323
			c-9.74,0.66-18.171-6.699-18.832-16.439c-0.661-9.74,6.698-18.172,16.438-18.832c9.739-0.661,18.171,6.698,18.831,16.438
			C47.304,38.229,39.943,46.661,30.204,47.323 M45.619,17.774l-0.604-0.551l0.289-0.316l0.244,0.223l1.065-1.167l-0.07-0.269
			l0.978-0.637l-0.561-0.513l-2.35,2.572l-0.359-0.328l2.639-2.888l1.322,1.208l-1.452,0.968l0.224,0.203L45.619,17.774z
			 M47.313,37.69c-0.048-0.015-0.096-0.031-0.143-0.048c0.29-0.645,0.548-1.31,0.772-1.996c1.573-4.831,1.185-9.838-0.725-14.157
			c0.04-0.034,0.08-0.067,0.119-0.101c1.938,4.36,2.337,9.42,0.746,14.303C47.861,36.38,47.603,37.047,47.313,37.69 M48.767,38.232
			c-0.095-0.038-0.19-0.076-0.286-0.115c0.293-0.659,0.555-1.339,0.782-2.041c1.729-5.309,1.244-10.815-0.941-15.518
			c0.081-0.069,0.163-0.138,0.244-0.207c2.248,4.788,2.755,10.406,0.992,15.82C49.326,36.88,49.062,37.567,48.767,38.232
			 M51.595,36.835c-0.263,0.807-0.565,1.588-0.905,2.346c-0.236-0.14-0.477-0.27-0.721-0.395c0.316-0.714,0.602-1.446,0.849-2.203
			c1.911-5.869,1.31-11.963-1.206-17.115c0.214-0.181,0.429-0.363,0.644-0.543C52.937,24.299,53.597,30.687,51.595,36.835"/>
		<polygon fill="#040000" points="13.657,45.904 14.461,47.13 15.776,47.547 16.192,47.003 14.242,45.513 		"/>
		
			<rect x="29.248" y="51.305" transform="matrix(-0.0163 -0.9999 0.9999 -0.0163 -21.5894 82.6815)" fill="#040000" width="1.255" height="1.312"/>
		
			<rect x="42.124" y="44.773" transform="matrix(0.7976 -0.6032 0.6032 0.7976 -18.6064 35.0519)" fill="#040000" width="1.598" height="0.952"/>
	</g>
	<g>
		<path fill="#040000" d="M65.93,28.02v-3.147c0.916-0.694,1.561-1.316,1.934-1.868c0.747-1.111,1.428-2.916,2.04-5.414h2.774
			c-0.284,1.609-0.817,3.378-1.601,5.308v17.364h-2.561V26.406c-0.524,0.445-0.929,0.756-1.213,0.934
			C67.019,27.517,66.562,27.744,65.93,28.02z M72.918,21.551v-2.467h7.695v-1.387h2.48v1.387h7.401v2.467H72.918z M72.918,29.967
			v-2.507h17.577v2.507H72.918z M73.132,37.154v-2.573c0-1.139,0.235-1.934,0.707-2.387c0.506-0.48,1.213-0.721,2.12-0.721h11.056
			c1.254,0,2.12,0.24,2.601,0.721c0.488,0.488,0.729,1.342,0.72,2.561c-0.009,0.87-0.009,1.462,0,1.772
			c0.026,1.299-0.098,2.166-0.373,2.602c-0.48,0.756-1.312,1.134-2.494,1.134H76.679c-1.2,0-2.014-0.134-2.44-0.4
			c-0.383-0.23-0.653-0.524-0.813-0.88C73.229,38.564,73.132,37.955,73.132,37.154z M73.291,25.779v-2.507h16.817v2.507H73.291z
			 M76.626,37.755h9.708c0.686,0,1.103-0.066,1.254-0.2c0.143-0.115,0.213-0.333,0.213-0.653v-1.76c0-0.498-0.062-0.81-0.186-0.935
			c-0.161-0.15-0.489-0.227-0.987-0.227h-9.709c-0.613,0-0.978,0.059-1.094,0.174c-0.125,0.124-0.187,0.383-0.187,0.773v1.454
			c0,0.675,0.062,1.075,0.187,1.199C75.95,37.697,76.217,37.755,76.626,37.755z"/>
		<path fill="#040000" d="M93.189,40.236v-2.441c0.551-0.044,0.924-0.355,1.12-0.934c0.106-0.32,0.218-1.253,0.333-2.8l0.08-1.041
			h2.454c-0.027,0.569-0.094,1.596-0.2,3.081c-0.115,1.591-0.613,2.725-1.493,3.4C94.861,39.974,94.097,40.218,93.189,40.236z
			 M97.417,18.938v-1.333h2.467v1.333h14.444c0.685,0,1.182,0.066,1.493,0.2c0.898,0.382,1.347,1.089,1.347,2.121v8.162
			c0,0.782-0.234,1.387-0.706,1.813c-0.48,0.427-1.13,0.64-1.947,0.64H96.803c-0.861,0-1.529-0.221-2-0.666
			c-0.436-0.418-0.653-1.063-0.653-1.934v-7.922c0-0.791,0.249-1.405,0.747-1.84c0.444-0.382,1.08-0.573,1.906-0.573H97.417z
			 M96.616,22.578h18.099v-0.333c0-0.267-0.103-0.489-0.308-0.667c-0.178-0.151-0.413-0.227-0.706-0.227H97.604
			c-0.658,0-0.987,0.267-0.987,0.8V22.578z M96.616,26.005h18.099v-1.16H96.616V26.005z M114.715,28.273H96.616v0.267
			c0,0.587,0.268,0.88,0.801,0.88h16.471c0.23,0,0.436-0.098,0.613-0.293c0.143-0.151,0.214-0.347,0.214-0.587V28.273z
			 M100.551,33.021h2.468v3.241c0,0.462,0.125,0.826,0.373,1.093c0.285,0.303,0.662,0.453,1.134,0.453h7.695v2.468h-8.082
			c-1.093,0-1.974-0.338-2.64-1.014c-0.633-0.649-0.948-1.484-0.948-2.507V33.021z M106.913,36.314v-3.294h2.347v3.294H106.913z
			 M113.821,33.021h2.479l0.255,2.627c0.089,0.952,0.302,1.574,0.64,1.867c0.159,0.151,0.392,0.244,0.693,0.28v2.441
			c-1.103,0.017-2.005-0.356-2.707-1.121c-0.463-0.498-0.778-1.089-0.947-1.773c-0.062-0.276-0.12-0.76-0.173-1.454L113.821,33.021z
			"/>
		<path fill="#040000" d="M120.516,23.525l0.026-1.307c0.019-1.094,0.383-1.938,1.095-2.534c0.595-0.498,1.418-0.747,2.467-0.747
			l7.549-0.014v-1.253h2.466v1.253h7.176c1.263,0,2.209,0.285,2.841,0.854c0.676,0.623,1.013,1.347,1.013,2.174v1.574h-2.413
			l0.013-0.96c0-0.213-0.093-0.418-0.279-0.613c-0.338-0.365-0.774-0.547-1.307-0.547l-16.005-0.026
			c-0.773,0-1.321,0.093-1.646,0.28c-0.324,0.187-0.491,0.511-0.5,0.973l-0.026,0.894H120.516z M120.568,40.396v-2.401
			c1.628,0,3.081-0.049,4.361-0.146c1.743-0.134,3.375-0.423,4.895-0.867l-3.293-1.373c-1.014-0.427-1.89-1.009-2.628-1.747
			c-0.667-0.658-1.005-1.574-1.014-2.747l-0.027-2.655h-2.187l0.014-2.507h2.173v-1.761h2.468v1.761h15.149v-1.761h2.468v1.761
			h2.308v2.507h-2.308v1.907c0,1.645-0.409,2.881-1.227,3.708c-0.427,0.418-0.871,0.747-1.334,0.986
			c-0.275,0.144-1.742,0.783-4.401,1.921c1.521,0.399,2.783,0.667,3.788,0.8c1.058,0.144,2.356,0.214,3.894,0.214
			c0.275,0,0.806-0.004,1.588-0.014l-0.08,2.415c-1.716,0-3.396-0.099-5.041-0.294c-1.903-0.223-3.489-0.529-4.762-0.92
			c-0.622-0.188-1.454-0.494-2.493-0.921c-1.147,0.454-2.05,0.787-2.707,1C128.1,39.947,124.899,40.324,120.568,40.396z
			 M132.905,35.714l5.588-2.387c1.325-0.568,1.986-1.551,1.986-2.947v-1.921H125.33l0.014,2.227c0.009,0.782,0.209,1.379,0.6,1.787
			c0.339,0.356,0.867,0.686,1.587,0.987L132.905,35.714z"/>
		<path fill="#040000" d="M147.842,24.352v-2.414c0.16,0,0.275,0,0.347,0c1.183,0,1.978-0.267,2.388-0.8l1.52-2.014
			c0.703-0.916,1.907-1.374,3.614-1.374h8.162c1.609,0,2.712,0.169,3.308,0.507c0.409,0.223,0.721,0.48,0.934,0.774l1.32,1.773
			c0.373,0.489,0.777,0.8,1.214,0.934c0.364,0.115,0.965,0.182,1.8,0.2v2.414c-0.746,0-1.347-0.018-1.8-0.053
			c-1.085-0.098-1.912-0.493-2.481-1.187l-1.373-1.654c-0.399-0.489-0.813-0.8-1.24-0.933c-0.534-0.178-1.014-0.267-1.44-0.267
			h-6.854c-1.45,0-2.365,0.106-2.747,0.32c-0.356,0.196-0.668,0.454-0.935,0.773l-1.293,1.601c-0.658,0.818-1.534,1.271-2.627,1.36
			C149.22,24.339,148.615,24.352,147.842,24.352z M147.842,40.275v-2.507h11.056v-4.401h-10.255V30.86h10.255v-3.401h-10.255v-2.507
			h23.019v2.507h-10.296v3.401h10.296v2.507h-10.296v4.401h11.096v2.507H147.842z"/>
		<path fill="#040000" d="M175.075,21.325v-2.467h5.814v-1.333h2.467v1.333h5.828v2.467H175.075z M175.075,28.58v-2.468h1.547
			v-3.094h2.453v3.094h6.376v-3.094h2.466v3.094h1.254v2.468H175.075z M175.447,37.889v-5.308c0-0.641,0.223-1.184,0.668-1.627
			c0.462-0.445,1.049-0.667,1.76-0.667l8.815,0.013c0.747,0,1.348,0.222,1.801,0.667c0.436,0.427,0.653,0.916,0.653,1.467v5.361
			c0,0.773-0.227,1.378-0.68,1.814c-0.463,0.453-1.023,0.68-1.681,0.68h-8.936c-0.676,0-1.24-0.218-1.693-0.653
			C175.692,39.183,175.457,38.6,175.447,37.889z M178.982,37.781h6.602c0.399,0,0.692-0.089,0.88-0.267
			c0.169-0.16,0.254-0.443,0.254-0.854v-2.6c0-0.472-0.067-0.797-0.2-0.975c-0.134-0.168-0.392-0.253-0.773-0.253h-6.828
			c-0.364,0-0.637,0.085-0.813,0.253c-0.151,0.143-0.228,0.432-0.228,0.867v2.801c0,0.418,0.094,0.693,0.28,0.826
			C178.342,37.715,178.618,37.781,178.982,37.781z M191.025,40.289V20.138c0-0.702,0.194-1.271,0.587-1.707
			c0.471-0.524,1.031-0.787,1.681-0.787h3.84c0.782,0,1.405,0.218,1.867,0.654s0.693,1.098,0.693,1.987v6.375
			c0,0.524-0.08,0.934-0.239,1.227c-0.081,0.151-0.219,0.333-0.414,0.547c0.427,0.267,0.641,0.671,0.641,1.214l0.026,7.388
			c0,1.688-0.88,2.534-2.642,2.534h-2.12l-0.013-2.481h1.267c0.436,0,0.712-0.062,0.827-0.187c0.142-0.16,0.213-0.449,0.213-0.866
			l0.014-5.508c0-0.293-0.063-0.498-0.188-0.614c-0.142-0.142-0.461-0.213-0.959-0.213l-1.388,0.013v-2.467h1.307
			c0.597,0,0.952-0.098,1.067-0.293c0.098-0.16,0.146-0.454,0.146-0.88v-4.761c0-0.489-0.057-0.801-0.174-0.934
			c-0.142-0.16-0.417-0.24-0.826-0.24h-1.68c-0.48,0-0.787,0.08-0.921,0.24c-0.098,0.116-0.146,0.333-0.146,0.653v19.258H191.025z"
			/>
	</g>
</g>
</svg>
