<svg id="图层_1" data-name="图层 1" xmlns="http://www.w3.org/2000/svg" viewBox="0 0 749.66 90"><defs><style>.cls-1{fill:#004299;}.cls-2{fill:#14ae65;}</style></defs><title>QCORETEAM LOGO</title><path class="cls-1" d="M498.05,9.62H469.36a.67.67,0,0,0-.67.64V71.34h-9.48V10.27a.67.67,0,0,0-.67-.64H429.87V2h68.18Z"/><path class="cls-1" d="M506.58,71.34H570V64H516.71a.67.67,0,0,1-.64-.64V10a.66.66,0,0,1,.64-.65H570V2H506.58Z"/><rect class="cls-1" x="524.87" y="32.99" width="38.76" height="7.37"/><path class="cls-1" d="M613.84,1.42,574,71.34h9.73l13.52-23.61h30.59l-4-7.36H601.54l16-28.68a.72.72,0,0,1,1.22,0l34.12,59.65h9.2L622.34,1.42Z"/><path class="cls-1" d="M707.92,48.44a.62.62,0,0,1-.53-.29L675.27,2h-9.12V71.34H675V17.66a.66.66,0,0,1,.48-.61.78.78,0,0,1,.74.25l31.59,45,26.14-37.07V11.53L708.47,48.15A.66.66,0,0,1,707.92,48.44Z"/><rect class="cls-1" x="740.57" y="2.02" width="9.09" height="69.32"/><path class="cls-2" d="M321.35,44.23a.67.67,0,0,1,.52-.4c11.19-1.24,23.51-8.88,23.51-22C345.39,10.7,337,2,316.39,2H276.55V71.34H286V10.27c-.78-.34-.48-.64-.12-.64h27.42c13.56,0,22.58,4.12,22.58,12.2,0,7.64-6.13,16.33-22.71,16.33H294.08v7.38h16.35a.62.62,0,0,1,.52.24l24,25.56h12.92l-26.43-26.5A.66.66,0,0,1,321.35,44.23Z"/><path class="cls-2" d="M358,71.34h63.37V64H368.08a.66.66,0,0,1-.66-.64V10a.65.65,0,0,1,.66-.65h53.26V2H358Z"/><rect class="cls-2" x="375.46" y="32.99" width="39.54" height="7.37"/><path class="cls-2" d="M177,36.4c0,19,17.86,34.38,40.63,36.08V64.92C200,63.24,187,51.19,187,36.4S200,9.57,217.68,7.89V.33C194.91,2,177,17.44,177,36.4Z"/><path class="cls-2" d="M226.5.37V7.93c17.4,1.89,30.09,13.86,30.09,28.47S243.9,63,226.5,64.89v7.54c22.49-1.93,40.1-17.21,40.1-36S249,2.3,226.5.37Z"/><path class="cls-2" d="M142.4,65.26c-19.65,0-34.78-12.92-34.78-28.86S122.75,7.55,142.4,7.55a39.52,39.52,0,0,1,25.93,9.21l6.55-5.32C166.72,4.43,155.23,0,142.4,0,117.68,0,97.62,16.29,97.62,36.4s20.06,36.42,44.78,36.42c13.32,0,25.11-4.81,33.32-12.28l-6.55-5.33A39.1,39.1,0,0,1,142.4,65.26Z"/><path class="cls-2" d="M106.64,80.78c-4.82-18.32-20.83-24.16-31.53-19.43-17.74,7.83-30.74,7.92-46,.85C17.81,57.44,10,47.64,10,36.4,10,20.49,25.15,7.55,44.79,7.55S79.57,20.49,79.57,36.4c0,12.47-5.86,20-17.22,24C75.86,58.7,89.57,54,89.57,36.4,89.57,16.29,69.51,0,44.79,0S0,16.29,0,36.4,20,72.82,44.79,72.82c14.37,0,21-4.76,29-9.76C83.11,57.18,97,70,98.92,90A76.18,76.18,0,0,0,106.64,80.78Z"/></svg>