<?xml version="1.0" encoding="utf-8"?>
<!-- Generator: Adobe Illustrator 16.0.0, SVG Export Plug-In . SVG Version: 6.00 Build 0)  -->
<!DOCTYPE svg PUBLIC "-//W3C//DTD SVG 1.1//EN" "http://www.w3.org/Graphics/SVG/1.1/DTD/svg11.dtd">
<svg version="1.1" id="图层_1" xmlns="http://www.w3.org/2000/svg" xmlns:xlink="http://www.w3.org/1999/xlink" x="0px" y="0px"
	 width="100px" height="100px" viewBox="0 0 100 100" enable-background="new 0 0 100 100" xml:space="preserve">
<g>
	<polygon fill-rule="evenodd" clip-rule="evenodd" fill="none" points="81.119,11.75 50,11.75 18.88,11.75 0.826,33.78 50,93.105 
		99.174,33.78 	"/>
	<polygon fill="#DBDCDC" points="81.119,11.69 50,11.69 18.88,11.69 0.826,33.72 50,93.045 99.174,33.72 	"/>
	<polygon opacity="0.54" fill="#FFFFFF" points="0.892,33.64 0.826,33.72 50,93.045 50,33.64 	"/>
	<polygon fill="#FFFFFF" points="0.892,33.64 20.551,33.64 26.862,26.901 18.831,11.75 	"/>
	<polygon opacity="0.54" fill="#FFFFFF" points="81.125,11.697 73.066,26.901 79.377,33.64 99.109,33.64 	"/>
	<path fill="#050101" d="M50,93.38l-0.165-0.198L0.548,33.721l18.231-22.244h62.441l0.064,0.078l18.166,22.166L50,93.38z
		 M1.103,33.719L50,92.709l48.896-58.99L81.018,11.904H18.982L1.103,33.719z"/>
	<path fill-rule="evenodd" clip-rule="evenodd" fill="#070203" d="M50,83.109L8.75,33.788l13.362-15.892H50h27.889L91.25,33.788
		L50,83.109z"/>
	<g>
		<g>
			<path fill="#070203" d="M15.287,42.36l-2.707,2.347l-1.657-1.91l1.91-1.657l-0.69-0.796l-2.707,2.348l3.038,3.502l4.298-3.729
				L15.287,42.36z M18.358,47.508l-0.691-0.796l-1.751,1.519l0.358-5.054l-3.661,3.176l0.69,0.796l1.751-1.52l-0.358,5.054
				L18.358,47.508z M18.496,47.667l-2.706,2.348l0.69,0.796l2.707-2.348L18.496,47.667z M18.104,51.075l1.115-0.967l2.347,2.706
				l0.796-0.689l-3.038-3.503l-2.706,2.348l3.038,3.502l0.796-0.69L18.104,51.075z M22.5,52.283l-2.706,2.348l3.038,3.502
				l2.706-2.347L22.5,52.283z M21.281,54.736l1.114-0.967l1.658,1.911l-1.115,0.966L21.281,54.736z M31.892,63.108l-0.691-0.796
				l-1.751,1.519l0.358-5.054l-3.502,3.038l0.105-1.486l0.552,0.637l1.751-1.519l-3.038-3.503l-2.706,2.348l0.69,0.796l1.91-1.657
				l1.657,1.911l-0.159,0.138l-1.519-1.751l-0.358,5.054l0.955-0.829l0.69,0.796l1.751-1.519l-0.358,5.054L31.892,63.108z
				 M34.134,67.301l0.796-0.69l-2.9-3.343l-0.796,0.69l1.105,1.273l-1.911,1.657l0.691,0.796l1.91-1.657L34.134,67.301z
				 M33.848,69.223l0.159-0.139l1.657,1.911l1.486,0.105l-2.348-2.706l0.16-0.139l2.347,2.706l0.796-0.689l-3.039-3.503
				l-2.706,2.348l3.038,3.502l0.796-0.689L33.848,69.223z M37.885,75.484l0.69,0.796l3.502-3.037l-6.541-0.465l0.967,1.115
				l2.973,0.211L37.885,75.484z M41.579,73.954l-4.458,3.867l1.487,0.105l1.751-1.519l-0.126,1.783l1.784,0.126l-0.955,0.829
				l0.69,0.796l2.865-2.486l-3.27-0.231L41.579,73.954z M25.207,13.782h2.107l-0.211,0.21h-1.686v1.053h2.108l1.264-1.264v-1.054
				h-4.636v5.689l1.054-1.054V13.782z M33.637,15.257h-3.583v-0.211h2.529l1.054-1.053h-3.583v-0.21h3.583v-1.054H29v3.582h4.637
				V15.257z M38.484,13.992h-3.372l1.054,1.053h1.264v0.211h-2.528v-1.475h3.583v-1.054h-4.636v3.582h4.636V13.992z M38.694,16.31
				h1.476l2.107-2.106v2.106h1.053v-3.582v-1.054L38.694,16.31z M48.178,13.782v-1.054h-4.848l2.529,2.529h-2.318v1.053h4.847
				l-2.528-2.528H48.178z M51.971,11.674v3.583h-2.528v-2.529h-1.054v3.582h4.637v-3.582V10.62L51.971,11.674z M53.236,16.31h4.846
				l-2.527-2.528h2.316v-1.054h-4.846l2.529,2.529h-2.318V16.31z M59.768,16.31h1.055v-2.528h1.686v-1.054h-4.426v1.054h1.686V16.31
				z M67.355,15.257h-3.582v-0.211h2.529l1.053-1.053h-3.582v-0.21h3.582v-1.054h-4.637v3.582h4.637V15.257z M71.148,14.203v2.106
				h1.055v-4.636l-4.637,4.636h1.475L71.148,14.203z M73.467,15.045l1.266,1.264l1.264-1.264v1.264h1.053v-3.792l-2.316,2.318
				l-2.318-2.318v5.9l1.053-1.054V15.045z M55.373,78.214l0.811,0.671l2.283-2.761l0.162,0.134l-1.611,1.949l0.141,1.484
				l2.283-2.762l0.162,0.134l-2.283,2.762l0.813,0.672l2.955-3.574l-2.762-2.283L55.373,78.214z M60.105,74.472l-0.162-0.135
				l2.283-2.761l-0.813-0.672l-2.953,3.573l2.76,2.283l2.955-3.573l-1.787-1.478L60.105,74.472z M62.691,73.327l-1.611,1.95
				l-0.162-0.134l1.611-1.95L62.691,73.327z M61.549,70.741l2.76,2.283l2.955-3.573l-2.762-2.283L61.549,70.741z M65.779,69.592
				l-1.611,1.949l-1.137-0.939l1.613-1.949L65.779,69.592z M72.938,64.572l-1.137-0.939l-1.482,0.14l0.537-0.649l-1.787-1.477
				l-2.955,3.573l2.762,2.282l0.672-0.812l-1.949-1.612l1.611-1.948l0.162,0.135l-1.477,1.786L72.938,64.572z M69.201,61.483
				l2.762,2.283l2.953-3.573l-2.76-2.283L69.201,61.483z M73.434,60.334l-1.611,1.948l-1.137-0.939l1.611-1.949L73.434,60.334z
				 M74.912,58.548l-1.139-0.941l2.283-2.761l-0.813-0.671l-2.953,3.573l2.762,2.282l2.953-3.573l-0.813-0.671L74.912,58.548z
				 M79.012,51.272l-0.813-0.671l-2.82,3.41l0.813,0.672l1.074-1.3l1.947,1.611l0.674-0.812l-1.949-1.611L79.012,51.272z
				 M80.953,51.238l-0.162-0.135l1.611-1.949l-0.141-1.484l-2.283,2.762l-0.162-0.135l2.283-2.761l-0.813-0.671l-2.955,3.573
				l2.764,2.282l2.953-3.573l-0.813-0.671L80.953,51.238z M84.184,48.986l0.938-1.137l-0.279-2.967l1.623,1.343l0.672-0.812
				l-3.574-2.955L84.184,48.986z M90.225,41.676l-2.924-2.417l0.311,3.263l-3.264,0.31l4.549,3.76l-0.143-1.484l-1.785-1.476
				l1.779-0.169l-0.168-1.781l0.975,0.806L90.225,41.676z"/>
		</g>
	</g>
	<linearGradient id="SVGID_1_" gradientUnits="userSpaceOnUse" x1="50" y1="0.7427" x2="50" y2="58.1144">
		<stop  offset="0" style="stop-color:#DA3B2B"/>
		<stop  offset="1" style="stop-color:#701419"/>
	</linearGradient>
	<path fill-rule="evenodd" clip-rule="evenodd" fill="url(#SVGID_1_)" d="M69.51,52.69l-16.107-9.687l11.389-21.189h9.857
		l11.127,11.811L69.51,52.69z M47.279,39.321L22.753,24.573l2.599-2.759H50h7.521L47.279,39.321z M64.889,58.107L50,75.563
		L14.225,33.625l3.486-3.7L64.889,58.107z"/>
	<path fill-rule="evenodd" clip-rule="evenodd" fill="#040000" d="M57.135,29.333l-0.906-0.802c0.121-0.171,0.305-0.442,0.49-0.739
		c0.633-1.014,0.725-1.474,0.67-1.852c-0.029-0.196-0.076-0.525-1.24-2.462c-0.506-0.845-1.027-1.655-1.295-2.018
		c-0.523-0.707-1.084-1.671-1.154-1.874c-0.107-0.351-0.396-0.607-0.758-0.672c-0.057-0.009-0.111-0.015-0.168-0.015
		c-0.307,0-0.598,0.147-0.779,0.393c-0.248,0.337-0.682,0.938-0.91,1.343c-0.187,0.057-1.346,0.422-2.661,1.083
		c-0.045-0.038-0.093-0.071-0.145-0.099c-0.075-0.042-7.606-4.273-12.063-8.341c-0.178-0.164-0.41-0.253-0.652-0.253
		c-0.161,0-0.32,0.041-0.461,0.118c-0.362,0.197-0.56,0.602-0.493,1.007c0.197,1.187,0.696,4.024,1.095,4.776
		c0.277,0.52,1.116,1.31,1.871,1.958c-0.024,0.018-0.048,0.036-0.072,0.055c-0.365,0.306-0.454,0.825-0.211,1.234
		c0.175,0.297,1.583,2.675,2.294,3.841c-1.358,0.02-2.635,0.031-3.801,0.031c-6.313,0-7.563-0.3-7.796-0.391
		c-0.114-0.044-0.233-0.067-0.354-0.067c-0.336,0-0.652,0.178-0.827,0.465c-0.245,0.403-0.165,0.921,0.191,1.231l3.522,3.071
		c0.119,0.104,0.262,0.177,0.416,0.212c0.07,0.017,1.567,0.364,2.635,0.461c-0.096,0.129-0.16,0.282-0.183,0.449
		c-0.051,0.383,0.13,0.759,0.462,0.959l4.943,2.963c0.15,0.09,0.322,0.138,0.497,0.138c0.009,0,0.019-0.001,0.028-0.001
		c0.082,0.164,0.209,0.303,0.368,0.398l2.905,1.743c0.15,0.09,0.322,0.138,0.497,0.138c0.103,0,0.204-0.017,0.301-0.048
		c0.591-0.194,2.586-0.887,4.305-1.95c0.189,0.408,0.57,1.014,1.263,1.014c0.104,0,0.208-0.015,0.308-0.044
		c0.289-0.085,1.291-0.531,2.512-1.327l0.281,0.998c0.107,0.379,0.43,0.652,0.82,0.698c0.023,0.002,0.154,0.018,0.344,0.018
		c1.111,0,1.961-0.458,2.328-1.253c0.4-0.866,1.717-5.095,1.865-5.575C57.529,29.981,57.42,29.584,57.135,29.333z M52.094,26.81
		c0.004,0,0.01,0,0.018,0c0.385,0,1.205,0.591,1.986,1.413c-0.643,0.209-1.396,0.415-1.857,0.453
		C51.943,28.077,51.602,27.158,52.094,26.81z"/>
	<path fill-rule="evenodd" clip-rule="evenodd" fill="#FFFFFF" d="M51.545,26.013c-1.318,0.917-0.344,2.806,0.018,3.45
		c0.361,0.645,3.596-0.588,3.596-0.588l1.336,1.182c0,0-1.434,4.623-1.818,5.453c-0.385,0.833-1.686,0.683-1.686,0.683l-0.447-1.588
		c0.061,0.15,1.242-0.166,1.242-0.166c0.32-0.596,0.283-2.086,0.283-2.086c-2.217,2.257-4.71,3.396-5.075,3.502
		c-0.365,0.109-0.804-1.564-0.804-1.564c-1.754,1.409-4.485,2.353-5.1,2.554l-2.905-1.742c1.327-0.647,3.88-2.024,4.592-2.409
		c-0.964,0.46-4.38,1.531-5.485,1.874l-4.943-2.964l4.963-1.396c0,0-1.52,0.032-5.384-0.126c-0.98-0.04-2.771-0.459-2.771-0.459
		l-3.522-3.07c1.96,0.771,16.243,0.335,16.243,0.335c-0.271-0.588-3.113-0.815-3.113-0.815c-0.287-0.416-2.64-4.394-2.64-4.394
		c0.75,0.646,4.875,1.863,4.875,1.863c-3.131-1.777-6.072-4.379-6.44-5.072c-0.368-0.692-0.995-4.479-0.995-4.479
		c4.599,4.197,12.243,8.471,12.243,8.471c-1.655,1.291-1.986,2.365-1.986,2.365c0.326-0.408,0.733-0.779,1.177-1.115
		c1.808-1.363,4.239-2.116,4.386-2.159c0.182-0.054,0.346-0.001,0.479-0.316c0.131-0.314,0.912-1.372,0.912-1.372
		c0.094,0.322,0.771,1.449,1.303,2.167c0.248,0.334,0.76,1.136,1.244,1.941c0.557,0.928,1.076,1.864,1.111,2.103
		c0.064,0.448-1.115,2.066-1.115,2.066S52.863,25.098,51.545,26.013z M53.09,23.09l-1.484,0.348l1.629,0.386l0.068-0.471
		L53.09,23.09z"/>
	<path fill-rule="evenodd" clip-rule="evenodd" fill="#050101" d="M73.613,51.78c-0.393,0-0.91-0.239-1.074-0.917
		c-0.055-0.221-0.26-0.744-0.98-0.807c-0.045-0.004-0.088-0.006-0.127-0.006c-0.139,0-0.139,0-0.244,0.09
		c-0.141,0.122-0.404,0.348-0.813,0.406h-0.002c-0.064,0.016-0.186,0.042-0.33,0.042c-0.381,0-0.727-0.187-0.924-0.5
		c-0.279-0.445-0.17-0.939,0-1.378c-0.105-0.154-0.256-0.35-0.447-0.542c-0.021-0.022-0.043-0.045-0.063-0.07l-3.756-4.589
		l-2.549-1.437l-8.816,0.732c-0.027,0.001-0.055,0.003-0.08,0.003l-0.021-0.001l-1.209-0.024c-0.279-0.006-0.541-0.131-0.721-0.344
		c-0.18-0.213-0.26-0.492-0.221-0.768l0.195-1.326l-0.039-0.071c-0.189-0.331-0.166-0.745,0.059-1.054
		c0.182-0.249,0.477-0.398,0.783-0.398c0.068,0,0.137,0.007,0.203,0.022l1.791,0.381l1.545-2.903
		c0.17-0.318,0.498-0.516,0.855-0.516c0.084,0,0.166,0.01,0.246,0.031c0.852,0.222,1.666,0.434,2.361,0.615l-1.277-2.266
		c-0.205-0.365-0.156-0.818,0.127-1.129c0.014-0.016,0.029-0.031,0.045-0.045c-0.207-0.298-0.232-0.685-0.061-1.009l2.615-4.915
		c0.047-0.088,0.105-0.167,0.176-0.236c0.018-0.097,0.049-0.19,0.098-0.278l2.666-5.012c0.168-0.317,0.496-0.515,0.855-0.515
		c0.014,0,0.027,0.001,0.041,0.002c0.371,0.016,0.705,0.246,0.852,0.587l5.75,13.434c0.477-0.443,1.838-1.714,5.742-5.353
		c0.18-0.168,0.416-0.261,0.662-0.261c0.059,0,0.117,0.006,0.176,0.017c0.033,0.006,0.064,0.014,0.098,0.023
		c0.18-0.609,0.535-0.935,0.703-1.062l6.545-5.815c0.178-0.158,0.406-0.246,0.645-0.246c0.176,0,0.35,0.049,0.5,0.14
		c0.367,0.22,0.543,0.647,0.441,1.062c-0.021,0.092-2.264,9.262-2.965,11.916c-0.748,2.824-2.738,3.898-3.156,4.096l-3.959,2.286
		c0.262,0.207,0.537,0.437,0.703,0.618c0.428,0.469,1.041,1.183,1.424,1.953c0.006,0.014,0.012,0.028,0.018,0.042
		c0.547,1.252,0.543,1.722,0.377,2.427c0.182,0.687,0.064,1.391-0.328,1.943c-0.293,0.417-0.686,0.646-1.098,0.646
		c-0.463,0-0.867-0.296-1.01-0.737c-0.041-0.118-0.059-0.226-0.072-0.312c-0.025-0.154-0.051-0.314-0.301-0.61
		c-0.131-0.083-0.289-0.181-0.441-0.275c-0.004,0.492-0.178,0.951-0.375,1.262c-0.143,0.222-0.369,0.377-0.625,0.429
		c0.111,0.427,0.16,0.993-0.043,1.629c-0.023,0.072-0.055,0.143-0.094,0.207C74.535,51.352,74.191,51.78,73.613,51.78L73.613,51.78z
		"/>
	<path fill-rule="evenodd" clip-rule="evenodd" fill="#FFFFFF" d="M82.73,35.243c-0.701,2.654-2.664,3.481-2.664,3.481l-4.561,2.633
		l-2.352-1.477l-1.611-3.873l5.984-5.579l2.732,5.592c0.176-0.264-1.096-3.695-1.48-5.029c-0.391-1.334,0.33-1.795,0.33-1.795
		l6.584-5.85C85.693,23.346,83.434,32.588,82.73,35.243z M75.064,42.008c0.105,0.065,0.205,0.127,0.303,0.19v-0.001
		c0,0,0.885,0.63,1.174,0.947c0.348,0.382,0.932,1.046,1.27,1.729c0.521,1.196,0.42,1.394,0.283,1.973
		c-0.033,0.137,0.008,0.198,0.008,0.198c0.348,0.988-0.455,1.729-0.539,1.413c-0.074-0.191,0.006-0.633-0.656-1.36
		c0,0-0.855-0.544-1.23-0.739c-1.131-0.587-3.375-1.352-3.383-1.355c0.008,0.033-0.469-0.235-0.887-0.44
		c0.635,0.818,0.76,1.111,0.846,1.24c0.234,0.141,0.713,0.614,0.998,0.746c0.389,0.179,1.021-0.13,1.436,0.447
		c0.414,0.579-0.053,1.312-0.053,1.312s-0.182,0.03-0.334-0.25c-0.154-0.278-0.5-0.718-1-0.745c-0.5-0.028-1.146,0.241-1.135-0.017
		c0.008-0.171,0.066-0.25,0.252-0.332c0.201-0.089-0.006-0.085-0.145-0.106c-0.438-0.017-0.889-0.458-0.889-0.458
		c-0.045-0.036-0.627-0.329-0.619,0.267c0,0.415,0.262,1.443,0.9,1.294c0.277-0.065,1.375,0.156,1.766,0.696
		c0,0,0.789,0.801,0.43,1.937c0,0-0.277,0.458-0.377,0.042c-0.191-0.775-0.828-1.458-1.838-1.546c-1.012-0.088-1.035,0.454-1.42,0.5
		c-0.162,0.019-0.59,0.248-0.016-0.946c0,0-0.283-0.588-0.848-1.158l-3.871-4.73l-2.971-1.673l-9.111,0.757l-0.205-0.003
		l-1.006-0.021l0.244-1.658l-0.207-0.361l2.508,0.535l1.887-3.55c2.455,0.639,4.576,1.19,4.576,1.19l-2.4-4.258l7.305,3.228
		c0,0-3.84-2.434-6.004-3.555c-0.518-0.268-0.896-0.59-1.178-0.923l2.613-4.915l2.348,2.475c0,0-0.941-1.358-2.074-2.989
		l2.666-5.011l7.764,18.141C72.244,40.16,73.678,41.083,75.064,42.008z M76.578,46.229c0.252,0.171,0.74,0.059,0.74,0.059
		l-1.203-1.221C76.115,45.066,76.105,45.903,76.578,46.229z"/>
	<path fill="#050101" d="M63.84,52.639c-0.41-1.667-0.742-2.596-1.998-3.845c0.197,0.13,0.309,0.209,0.311,0.21
		c0.168,0.121,0.365,0.185,0.57,0.185c0.219,0,0.434-0.075,0.605-0.212c0.34-0.271,0.457-0.739,0.287-1.139
		c-0.051-0.118-1.254-2.899-3.277-4.434c-0.314-0.24-0.787-0.494-1.387-0.751c0.111-0.083,0.205-0.191,0.275-0.318
		c0.215-0.402,0.119-0.906-0.229-1.2c-0.053-0.043-1.279-1.08-2.902-1.946c-1.084-0.578-2.049-0.937-2.992-1.112
		c0.08-0.138,0.129-0.296,0.133-0.463c0.016-0.478-0.326-0.901-0.795-0.987c-0.055-0.01-1.379-0.249-2.929-0.249
		c-1.199,0-2.218,0.144-3.03,0.426c-1.09,0.379-2.364,0.914-3.286,1.378l-2.048-0.937c-0.127-0.058-0.263-0.088-0.403-0.088
		c-0.113,0-0.225,0.019-0.331,0.058l-0.723,0.263c0.019-0.069,0.03-0.14,0.034-0.213c0.02-0.399-0.202-0.764-0.565-0.93
		l-2.266-1.036c-0.127-0.059-0.263-0.088-0.403-0.088c-0.101,0-0.201,0.016-0.298,0.047l-0.771,0.248
		c0.016-0.064,0.026-0.131,0.03-0.2c0.018-0.397-0.204-0.761-0.565-0.926l-7.816-3.576c-0.127-0.058-0.264-0.088-0.403-0.088
		c-0.338,0-0.646,0.171-0.825,0.458c-0.257,0.414-0.167,0.957,0.211,1.265l5.422,4.417c0.172,0.14,0.39,0.218,0.613,0.218
		c0.11,0,0.218-0.018,0.321-0.055l0.041-0.014c-0.063,0.348,0.068,0.701,0.342,0.925l1.62,1.32c0.172,0.141,0.39,0.217,0.613,0.217
		c0.107,0,0.213-0.017,0.314-0.052l0.225-0.076c-0.021,0.056-0.038,0.116-0.048,0.177c-0.058,0.344,0.073,0.694,0.344,0.914
		l2.324,1.893c-0.721,1.329-1.875,3.493-2.225,4.369c-0.304,0.759-0.265,1.732-0.227,2.673c0.018,0.453,0.061,1.513-0.072,1.709
		c-0.393,0.58-1.406,1.904-2.301,3.073c-0.631,0.824-1.176,1.537-1.428,1.889c-0.444,0.622-0.626,1.268-0.542,1.921
		c0.081,0.624,0.409,1.228,0.976,1.794c0.859,0.859,1.407,1.277,2.253,1.721c0.359,0.187,0.749,0.282,1.157,0.282
		c0.629,0,1.262-0.228,1.779-0.643c0.075-0.055,0.367-0.122,0.868-0.198c0.598-0.093,1.115-0.171,1.455-0.6
		c0.342-0.431,0.256-0.933,0.165-1.464c-0.101-0.585-0.096-0.778-0.085-0.841c0.435-0.578,1.692-1.904,2.162-2.279
		c0.078-0.036,0.333-0.069,0.757-0.101c0.637-0.046,1.296-0.095,1.729-0.587c0.169-0.192,0.72-0.59,1.452-0.985
		c0.035-0.006,0.115-0.018,0.242-0.018c0.621,0,1.076,0.223,1.135,0.336c0.016,0.037,0.011,0.266-0.305,0.722
		c-1.725,2.5-4.976,8.289-5.795,10.18c-0.104,0.239-0.202,0.506-0.293,0.792c-0.102,0.32-0.032,0.666,0.186,0.923l7.967,9.363
		c0.185,0.218,0.454,0.343,0.739,0.343c0,0,0.001,0,0.002,0c0.286-0.001,0.556-0.127,0.74-0.346l11.339-13.458
		c0.123-0.146,0.199-0.322,0.221-0.512c0.174-1.462,0.328-3.641,0.082-5.719c-0.033-0.271-0.094-0.589-0.184-0.955
		c0.086,0.122,0.158,0.23,0.217,0.32c0.18,0.276,0.484,0.442,0.814,0.442c0.092,0,0.186-0.014,0.275-0.04
		c0.41-0.121,0.695-0.504,0.695-0.931C64.139,55.433,64.137,53.854,63.84,52.639z"/>
	<path fill-rule="evenodd" clip-rule="evenodd" fill="#FFFFFF" d="M26.666,31.686l5.422,4.417l2.394-0.84L26.666,31.686z
		 M35.026,38.496l3.731-1.279l-2.266-1.036l-3.086,0.995L35.026,38.496z M59.813,51.933c1.604,0.861,3.355,3.565,3.355,3.565
		s0-1.515-0.271-2.629c-0.434-1.773-0.709-2.511-2.338-3.943c-1.742-1.532-3.242-2.569-5.588-3.649
		c3.979,0.208,7.752,2.942,7.752,2.942s-1.129-2.644-2.971-4.041c-0.902-0.686-4.074-1.877-8.697-2.506
		c2.875-1.089,7.316,0.204,7.316,0.204s-1.184-1.002-2.732-1.83c-1.488-0.794-2.672-1.12-3.906-1.125
		c-2.47-0.008-3.128,0.11-4.198,0.226c1.376-1.179,4.731-1.565,4.731-1.565s-3.32-0.607-5.464,0.138
		c-1.293,0.45-2.764,1.095-3.575,1.543l-2.481-1.136l-4.271,1.548l2.948,2.402c-0.389,0.709-2.14,3.917-2.562,4.972
		c-0.475,1.189,0.199,3.685-0.396,4.566c-0.688,1.018-3.148,4.149-3.743,4.981c-0.594,0.831-0.501,1.634,0.331,2.465
		c0.832,0.832,1.298,1.171,2.016,1.546c0.654,0.342,1.391,0.136,1.881-0.257c0.558-0.446,1.94-0.356,2.169-0.645
		c0.183-0.23-0.406-1.644,0.03-2.238c0.435-0.595,1.831-2.079,2.386-2.515c0.554-0.437,1.996-0.159,2.344-0.555
		c0.348-0.396,1.18-0.911,1.774-1.229c0.594-0.317,4-0.02,2.277,2.476c-1.723,2.496-4.931,8.23-5.703,10.014
		c-0.094,0.22-0.181,0.454-0.258,0.7l7.967,9.363l11.339-13.457c0.215-1.827,0.281-3.796,0.08-5.49
		C61.217,55.615,60.467,53.507,59.813,51.933z M39.578,48.56c-0.156,0.789-0.333,0.714-0.509,0.574
		c-0.2-0.159-0.663-1.196-0.522-1.704c0.199-0.719,1.576-2.666,1.576-2.666S39.704,47.923,39.578,48.56z"/>
</g>
</svg>
