<?xml version="1.0" standalone="no"?><!DOCTYPE svg PUBLIC "-//W3C//DTD SVG 1.1//EN" "http://www.w3.org/Graphics/SVG/1.1/DTD/svg11.dtd"><svg t="1508923727640" class="icon" style="" viewBox="0 0 1024 1024" version="1.1" xmlns="http://www.w3.org/2000/svg" p-id="8421" xmlns:xlink="http://www.w3.org/1999/xlink" width="32" height="32"><defs><style type="text/css"></style></defs><path d="M441 4.4c-22.2 4-45 25.4-49.9 47.8l-3.9 16.6c-11.8 39.1-37.7 73.8-75.8 95.9-38.3 22-81.8 27.3-121.7 17.7l0 0-15.7-5.3c-21.7-6.7-51.5 2-66.4 19.4 0 0-13.2 15.7-38.6 59.7-25.3 44.1-32.3 63.1-32.3 63.1-7.8 21.4-0.4 51.5 16.3 67.2l12.4 11.6c28.1 29.6 45.1 69.6 45.1 113.7 0 44.1-17.2 84.4-45.4 114l-12.1 11.2c-16.6 15.5-24 45.7-16.3 67.2 0 0 7 19.2 32.3 63.3 25.6 44.1 38.9 59.6 38.9 59.6 14.6 17.4 44.3 26.1 66.2 19.4l15.8-4.8c39.9-9.4 83.3-4.4 121.5 17.7 38.3 22.1 64.4 57.1 76 96.5l3.6 16c5 22 27.5 43.7 49.9 47.8 0 0 20 3.6 71 3.6 50.9 0 71-3.6 71-3.6 22.5-4 45-25.4 49.9-47.8l3.6-15.7c11.6-39.3 37.7-74.6 76.2-96.6 38.3-22 81.8-27.3 121.7-17.7l0 0 15.5 4.6c21.7 6.7 51.5-2 66.4-19.4 0 0 13.2-15.7 38.6-59.7 25.4-44.1 32.3-63.1 32.3-63.1 7.8-21.4 0.3-51.5-16.3-67.2l-11.8-11c-28.2-29.9-45.5-70-45.5-114.3 0-44.3 17.4-84.7 45.7-114.3l0 0 11.8-11c16.6-15.5 24-45.7 16.3-67.2 0 0-7-19.2-32.3-63.3-25.4-44.1-38.6-59.6-38.6-59.6-14.6-17.5-44.5-26.1-66.4-19.4l-16 4.8c-39.7 9.4-83 4.5-121.1-17.7-38.3-22-64.5-57.4-76.2-96.6l0 0-3.6-15.7c-5-22-27.5-43.7-49.9-47.8 0 0-20-3.6-71-3.6C461.1 0.8 441 4.4 441 4.4L441 4.4 441 4.4 441 4.4zM767.9 511.9c0 141.2-114.5 256-256 256-141.2 0-255.7-114.5-255.7-256 0-141.2 114.5-256 256-256C653.4 256.2 767.9 370.7 767.9 511.9L767.9 511.9 767.9 511.9 767.9 511.9zM715.9 511.9" p-id="8422" fill="#d71718"></path><path d="M512 512m-128 0a128 128 0 1 0 256 0 128 128 0 1 0-256 0Z" p-id="8423" fill="#d71718"></path></svg>