<?xml version="1.0" standalone="no"?><!DOCTYPE svg PUBLIC "-//W3C//DTD SVG 1.1//EN" "http://www.w3.org/Graphics/SVG/1.1/DTD/svg11.dtd"><svg t="1508904092176" class="icon" style="" viewBox="0 0 1056 1024" version="1.1" xmlns="http://www.w3.org/2000/svg" p-id="7757" xmlns:xlink="http://www.w3.org/1999/xlink" width="33" height="32"><defs><style type="text/css"></style></defs><path d="M669.538462 1024 165.415385 1024C70.892308 1024 0 953.107692 0 858.584615L0 716.8l47.261538 7.876923c7.876923 0 15.753846 0 23.630769 0 63.015385 0 118.153846-55.138462 118.153846-118.153846S133.907692 488.369231 70.892308 488.369231c-7.876923 0-15.753846 0-23.630769 0L0 504.123077 0 354.461538c0-94.523077 70.892308-165.415385 165.415385-165.415385l55.138462 0C228.430769 86.646154 315.076923 0 417.476923 0s189.046154 86.646154 196.923077 189.046154l55.138462 0c94.523077 0 165.415385 70.892308 165.415385 165.415385l0 55.138462c7.876923 0 15.753846 0 23.630769 0 110.276923 0 196.923077 86.646154 196.923077 196.923077s-86.646154 196.923077-196.923077 196.923077c-7.876923 0-15.753846 0-23.630769 0l0 55.138462C834.953846 953.107692 764.061538 1024 669.538462 1024zM78.769231 803.446154l0 55.138462C78.769231 905.846154 118.153846 945.230769 165.415385 945.230769l504.123077 0c47.261538 0 86.646154-39.384615 86.646154-86.646154L756.184615 693.169231l55.138462 23.630769c15.753846 7.876923 31.507692 7.876923 47.261538 7.876923 63.015385 0 118.153846-55.138462 118.153846-118.153846s-55.138462-118.153846-118.153846-118.153846c-15.753846 0-31.507692 0-47.261538 7.876923L756.184615 519.876923 756.184615 354.461538c0-47.261538-39.384615-86.646154-86.646154-86.646154L519.876923 267.815385l7.876923-47.261538c0-7.876923 0-15.753846 0-23.630769C535.630769 133.907692 480.492308 78.769231 417.476923 78.769231S299.323077 133.907692 299.323077 196.923077c0 7.876923 0 15.753846 0 23.630769L315.076923 267.815385 165.415385 267.815385C118.153846 267.815385 78.769231 307.2 78.769231 354.461538l0 55.138462c102.4 7.876923 189.046154 94.523077 189.046154 196.923077S181.169231 795.569231 78.769231 803.446154z" p-id="7758" fill="#d71718"></path></svg>