<?xml version="1.0" standalone="no"?><!DOCTYPE svg PUBLIC "-//W3C//DTD SVG 1.1//EN" "http://www.w3.org/Graphics/SVG/1.1/DTD/svg11.dtd"><svg t="1499438099673" class="icon" style="" viewBox="0 0 1024 1024" version="1.1" xmlns="http://www.w3.org/2000/svg" p-id="8219" xmlns:xlink="http://www.w3.org/1999/xlink" width="16" height="16"><defs><style type="text/css"></style></defs><path d="M912.9 403.9L749.6 567.2l-35.4-35.4 163.3-163.3c9.4-9.4 14.5-21.9 14.5-35.4 0-13.4-5.2-26-14.5-35.4L726.2 146.5c-9.4-9.4-21.9-14.5-35.4-14.5-13.4 0-26 5.2-35.4 14.5l-246 246.1c-9.4 9.4-14.5 21.9-14.5 35.4 0 13.4 5.2 26 14.5 35.4l51.7 51.7-35.4 35.4-51.7-51.7c-38.9-38.9-38.9-102.5 0-141.4l246.1-246.1c38.9-38.9 102.5-38.9 141.4 0l151.3 151.3c39 38.7 39 102.4 0.1 141.3z m-263 121.5l-91.5-91.5-35.4 35.4 91.5 91.5c9.4 9.4 14.5 21.9 14.5 35.4 0 13.4-5.2 26-14.5 35.4l-246 245.9c-9.4 9.4-21.9 14.5-35.4 14.5-13.4 0-26-5.2-35.4-14.5L146.5 726.2c-9.4-9.4-14.5-21.9-14.5-35.4 0-13.4 5.2-26 14.5-35.4L304 498l-35.4-35.4-157.5 157.5c-38.9 38.9-38.9 102.5 0 141.4l151.3 151.3c38.9 38.9 102.5 38.9 141.4 0l246.1-246.1c38.9-38.8 38.9-102.4 0-141.3z" fill="#d71718" p-id="8220"></path></svg>