<?xml version="1.0" standalone="no"?><!DOCTYPE svg PUBLIC "-//W3C//DTD SVG 1.1//EN" "http://www.w3.org/Graphics/SVG/1.1/DTD/svg11.dtd"><svg t="1498656676433" class="icon" style="" viewBox="0 0 1024 1024" version="1.1" xmlns="http://www.w3.org/2000/svg" p-id="10150" xmlns:xlink="http://www.w3.org/1999/xlink" width="200" height="200"><defs><style type="text/css"></style></defs><path d="M509.873 601.265c2.193 1.192 3.847 1.151 5.99-0.039 11.199-6.227 22.468-12.327 33.733-18.437 120.442-65.313 240.888-130.616 361.329-195.928 13.529-7.336 27.035-14.715 41.222-22.437-1.824-1.088-2.951-1.815-4.128-2.453-22.526-12.226-45.061-24.437-67.589-36.658-121.268-65.789-242.542-131.567-363.769-197.433-2.867-1.557-4.964-1.463-7.769 0.063-77.375 42.064-154.799 84.034-232.21 126.030-66.505 36.080-133.005 72.172-199.501 108.269-1.089 0.591-2.111 1.305-3.558 2.206 1.813 1.013 2.989 1.688 4.179 2.333 64.946 35.238 129.894 70.474 194.842 105.711 79.086 42.908 158.176 85.81 237.23 128.776z" p-id="10151" fill="#d71718"></path><path d="M902.576 486.927c-128.183 63.372-256.37 126.728-384.498 190.211-3.835 1.9-6.723 1.869-10.539-0.022-128.256-63.533-256.57-126.947-384.877-190.373-1.319-0.653-2.66-1.266-4.38-2.082-8.569 17.615-16.995 34.94-25.486 52.399 1.602 0.878 2.645 1.499 3.729 2.035 137.347 67.898 274.704 135.776 412.011 203.757 3.17 1.569 5.533 1.496 8.646-0.044 137.313-67.967 274.67-135.846 412.016-203.745 1.166-0.577 2.274-1.273 3.666-2.059-8.576-17.596-16.977-34.83-25.514-52.343-1.861 0.882-3.327 1.552-4.773 2.266z" p-id="10152" fill="#d71718"></path><path d="M903.003 637.058c-35.933 17.752-71.867 35.499-107.795 53.261-92.873 45.914-185.747 91.823-278.585 137.807-2.708 1.342-4.799 1.411-7.547 0.036-23.769-11.9-47.619-23.637-71.447-35.419-99.224-49.061-198.448-98.123-297.675-147.179-7.072-3.497-14.164-6.957-21.642-10.628-8.562 17.593-16.997 34.927-25.538 52.475 1.673 0.891 2.842 1.552 4.043 2.146 137.353 67.907 274.711 135.803 412.044 203.747 2.585 1.279 4.623 1.688 7.498 0.263 137.552-68.117 275.159-136.124 412.756-204.154 1.171-0.579 2.276-1.288 3.72-2.114-8.567-17.581-16.965-34.814-25.495-52.321-1.683 0.807-3.018 1.43-4.339 2.082z" p-id="10153" fill="#d71718"></path></svg>