<?xml version="1.0" encoding="utf-8"?>
<!-- Generator: Adobe Illustrator 16.0.0, SVG Export Plug-In . SVG Version: 6.00 Build 0)  -->
<!DOCTYPE svg PUBLIC "-//W3C//DTD SVG 1.1//EN" "http://www.w3.org/Graphics/SVG/1.1/DTD/svg11.dtd">
<svg version="1.1" id="图层_1" xmlns="http://www.w3.org/2000/svg" xmlns:xlink="http://www.w3.org/1999/xlink" x="0px" y="0px"
	 width="800px" height="156.132px" viewBox="0 0 800 156.132" enable-background="new 0 0 800 156.132" xml:space="preserve">
<g>
	<path fill="#BF2520" d="M190.235,29.22c-24.568,0-43.819,18.396-43.819,41.878c0,23.857,18.703,41.863,43.499,41.863
		c24.579,0,43.831-18.393,43.831-41.863C233.746,47.23,215.033,29.22,190.235,29.22 M216.812,71.419
		c0,16.05-11.171,27.702-26.578,27.702c-15.073,0-26.908-12.307-26.908-28.023c0-16.258,11.189-28.067,26.588-28.067
		c15.074,0,26.898,12.328,26.898,28.067V71.419z"/>
	<rect x="255.006" y="8.072" fill="#BF2520" width="17.253" height="102.104"/>
	<path fill="#BF2520" d="M337.343,29.229c-24.569,0-43.843,18.389-43.843,41.869c0,23.857,18.713,41.863,43.519,41.863
		c12.413,0,21.509-7.088,24.833-10.129l2.236-2.02v9.361h16.751V70.756C380.842,47.078,362.148,29.229,337.343,29.229
		 M337.343,99.131c-15.094,0-26.9-12.324-26.9-28.033c0-16.258,11.183-28.057,26.579-28.057c15.074,0,26.892,12.306,26.892,28.057
		C363.913,87.336,352.75,99.131,337.343,99.131"/>
	<path fill="#BF2520" d="M58.619,100.811l2.217,2.008c3.335,3.049,12.44,10.141,24.852,10.141c24.796,0,43.48-18.002,43.48-41.86
		c0-23.48-19.243-41.88-43.812-41.88c-24.814,0-43.509,17.86-43.509,41.537v70.871h16.771V100.811L58.619,100.811z M85.687,43.044
		c15.389,0,26.561,11.796,26.561,28.054c0,15.719-11.815,28.027-26.891,28.027c-15.396,0-26.566-11.789-26.566-28.027
		C58.79,55.371,70.594,43.044,85.687,43.044"/>
	<path fill="#BF2520" d="M478.895,100.811l2.217,2.008c3.334,3.049,12.441,10.141,24.852,10.141c24.797,0,43.48-18.002,43.48-41.86
		c0-23.48-19.244-41.88-43.811-41.88c-24.816,0-43.512,17.86-43.512,41.537v70.871h16.771v-40.816H478.895z M505.963,43.044
		c15.387,0,26.559,11.796,26.559,28.054c0,15.719-11.814,28.027-26.889,28.027c-15.398,0-26.568-11.789-26.568-28.027
		C479.064,55.371,490.867,43.044,505.963,43.044"/>
	<path fill="#BF2520" d="M687.604,100.811l2.217,2.008c3.334,3.049,12.441,10.141,24.852,10.141c24.797,0,43.48-18.002,43.48-41.86
		c0-23.48-19.244-41.88-43.811-41.88c-24.816,0-43.512,17.86-43.512,41.537v70.871h16.771v-40.816H687.604z M714.672,43.044
		c15.387,0,26.559,11.796,26.559,28.054c0,15.719-11.814,28.027-26.889,28.027c-15.398,0-26.568-11.789-26.568-28.027
		C687.773,55.371,699.578,43.044,714.672,43.044"/>
	<path fill="#BF2520" d="M610.092,29.229c-10.072,0-19.256,3.129-26.588,8.44V8.071H566.25v102.104h17.254h0.01V70.929
		c0-16.163,11.031-27.884,26.248-27.884c15.141,0,26.576,11.985,26.576,27.884v39.245h17.246V70.929
		C653.582,47.554,634.482,29.229,610.092,29.229z"/>
	<path fill="#BF2520" d="M402.617,110.176h17.254V70.757c0-15.82,10.031-27.043,24.557-27.685V29.24
		c-23.922,0.642-41.811,18.273-41.811,41.518V110.176z"/>
</g>
</svg>
