<?xml version="1.0" standalone="no"?><!DOCTYPE svg PUBLIC "-//W3C//DTD SVG 1.1//EN" "http://www.w3.org/Graphics/SVG/1.1/DTD/svg11.dtd"><svg t="1506580483507" class="icon" style="" viewBox="0 0 1026 1024" version="1.1" xmlns="http://www.w3.org/2000/svg" p-id="2382" xmlns:xlink="http://www.w3.org/1999/xlink" width="64.125" height="64"><defs><style type="text/css"></style></defs><path d="M11.94641 493.1l57.306 30.7c0 0 26.066 15.554 39.818-13.506l141.856-309.022c0 0 13.426-26.4-8.512-38.814L179.86641 130.666c0 0-19.384-11.256-32.024 12.486C147.44841 152.702 2.25441 458.042 2.25441 458.042S-6.98159 483.074 11.94641 493.1zM947.36841 524.482l58.482-28.038c0 0 27.962-11.802 14.474-41.064L874.40841 148.47c0 0-11.66-27.216-34.582-16.982l-62.542 31.584c0 0-20.498 8.936-10.414 33.904 7.006 6.276 148.074 313.796 148.074 313.796S928.10841 533.76 947.36841 524.482zM150.72441 523.46l19.32-42.636 67.784 89.16c0 0 44.076-10.504 59.532 18.212 0 0 14.54 17.462 8.186 50.412 0 0 9.102 6.89 9.824 11.186 0 0 30.324-7.636 48.594 14.808 0 0 16.766 13.912 14.868 41.062 0 0 12.05 5.39 14.54 12.824 0 0 29.798-7.708 44.274 10.438 0 0 17.682 17.19 16.372 37.316l27.704 21.078c0 0 25.804 2.252 29.93 23.26l24.82 19.104c0 0 39.688 16.372 41.916-24.97l-93.196-73.944c0 0-10.936-29.812 23.25-25.174l138.91 101.916c0 0 22.724 10.098 36.478-12.348 0 0 13.36-19.374-5.632-40.384l-147.75-111.192c0 0-13.032-31.108 20.5-28.72l175.32 129.206c0 0 24.886 10.298 35.368-9.006 0 0 14.208-19.302 0-39.222l-193.53-147.076c0 0-11.656-35.27 24.558-26.128l199.554 148.03c0 0 30.192 9.894 43.616-15.754 0 0 17.096-27.562-5.828-50.28L547.73241 348.144c0 0-52.458-26.126-83.764 28.514 0 0-5.5 89.024-100.462 105.258 0 0-64.772-5.184-49.708-49.458 0 0 18.994-26.196 17.356-81.382 0 0 2.162-39.568 28.49-73.334L258.00041 277.742l22.334-48.228 153.51 0c0 0 63.07-37.248 110.616-33.768 0 0 62.022 3.48 78.656 13.372 0 0 82.124 27.354 118.932 20.944l137.4 296.604-21.806 51.842c0 0 40.212 43.046 10.542 95.232-8.25 17.532-29.468 34.45-64.116 36.088 0 0 5.304 35.198-18.994 55.05 0 0-17.878 25.514-61.166 18.484 0 0 2.486 31.108-26.198 51.778 0 0-34.122 30.558-86.842-6.682 0 0-8.384 34.99-50.494 42.154 0 0-30.716 4.978-48.594-13.03 0 0-32.158 63.102-77.938 27.56 0 0-29.01-25.036-8.644-60.44 0 0-39.032 64.26-85.4 15.96 0 0-25.738-20.122-1.964-62.278 0 0-36.806 43.656-77.346 4.092 0 0-27.636-23.538-5.566-67.332 0 0-37.658 46.456-81.536 2.182 0 0-18.404-17.666-7.794-56.958l42.44-60.442L150.72441 523.46z" p-id="2383" fill="#d71718"></path></svg>