<?xml version="1.0" encoding="utf-8"?>
<!-- Generator: Adobe Illustrator 22.1.0, SVG Export Plug-In . SVG Version: 6.00 Build 0)  -->
<svg version="1.1" id="图层_1" xmlns="http://www.w3.org/2000/svg" xmlns:xlink="http://www.w3.org/1999/xlink" x="0px" y="0px"
	 viewBox="0 0 202 50" style="enable-background:new 0 0 202 50;" xml:space="preserve">
<style type="text/css">
	.st0{fill:#E72A2C;}
</style>
<g>
	<g>
		<g>
			<g>
				<g>
					<path class="st0" d="M177,40.2c-7,0-12.8-5.7-12.8-12.8c0-7,5.7-12.8,12.8-12.8c7,0,12.8,5.7,12.8,12.8
						C189.8,34.5,184,40.2,177,40.2z M177,19.6c-4.3,0-7.9,3.5-7.9,7.9c0,4.3,3.5,7.9,7.9,7.9c4.3,0,7.9-3.5,7.9-7.9
						C184.9,23.1,181.3,19.6,177,19.6z"/>
				</g>
				<g>
					<rect x="184.9" y="27.5" class="st0" width="4.9" height="12.2"/>
				</g>
				<g>
					<path class="st0" d="M121.4,40.2c-7,0-12.8-5.7-12.8-12.8c0-7,5.7-12.8,12.8-12.8c7,0,12.8,5.7,12.8,12.8
						C134.1,34.5,128.4,40.2,121.4,40.2z M121.4,19.6c-4.3,0-7.9,3.5-7.9,7.9c0,4.3,3.5,7.9,7.9,7.9c4.3,0,7.9-3.5,7.9-7.9
						C129.3,23.1,125.7,19.6,121.4,19.6z"/>
				</g>
				<g>
					<path class="st0" d="M149.2,40.2c-7,0-12.8-5.7-12.8-12.8c0-7,5.7-12.8,12.8-12.8c7,0,12.8,5.7,12.8,12.8
						c0,1.4-1.1,2.4-2.4,2.4h-17.8c1,3.1,4,5.4,7.5,5.4c2.7,0,5.2-1.4,6.7-3.7l4.1,2.6C157.6,38,153.6,40.2,149.2,40.2z M141.7,25
						h15c-1-3.1-4-5.4-7.5-5.4C145.7,19.6,142.7,21.9,141.7,25z"/>
				</g>
				<g>
					<rect x="129.3" y="9.8" class="st0" width="4.9" height="17"/>
				</g>
				<g>
					<rect x="101" y="15.5" class="st0" width="4.9" height="24.2"/>
				</g>
				<g>
					<path class="st0" d="M57.8,40.2c-7,0-12.8-5.7-12.8-12.8c0-7,5.7-12.8,12.8-12.8c7,0,12.8,5.7,12.8,12.8
						C70.6,34.5,64.9,40.2,57.8,40.2z M57.8,19.6c-4.3,0-7.9,3.5-7.9,7.9c0,4.3,3.5,7.9,7.9,7.9c4.3,0,7.9-3.5,7.9-7.9
						C65.7,23.1,62.2,19.6,57.8,19.6z"/>
				</g>
				<g>
					<path class="st0" d="M85.5,40.2c-7,0-12.8-5.7-12.8-12.8c0-7,5.7-12.8,12.8-12.8c7,0,12.8,5.7,12.8,12.8
						C98.3,34.5,92.5,40.2,85.5,40.2z M85.5,19.6c-4.3,0-7.9,3.5-7.9,7.9c0,4.3,3.5,7.9,7.9,7.9c4.3,0,7.9-3.5,7.9-7.9
						C93.4,23.1,89.9,19.6,85.5,19.6z"/>
				</g>
				<g>
					<rect x="24.9" y="17.7" class="st0" width="4.9" height="14.8"/>
				</g>
				<path class="st0" d="M24.9,32.6c0,1.5-1.4,2.7-3.9,2.7s-3.9-1.2-3.9-2.7v-17h-4.9v17c0,4.2,3.9,7.6,8.8,7.6
					c4.8,0,8.8-3.4,8.8-7.6H24.9z"/>
				<path class="st0" d="M29.8,32.6c0,1.5,1.4,2.7,3.9,2.7c2.5,0,3.9-1.2,3.9-2.7v-17h4.9v17c0,4.2-3.9,7.6-8.8,7.6
					c-4.8,0-8.8-3.4-8.8-7.6H29.8z"/>
			</g>
		</g>
	</g>
</g>
</svg>
