<?xml version="1.0" standalone="no"?><!DOCTYPE svg PUBLIC "-//W3C//DTD SVG 1.1//EN" "http://www.w3.org/Graphics/SVG/1.1/DTD/svg11.dtd"><svg t="1508385227173" class="icon" style="" viewBox="0 0 1024 1024" version="1.1" xmlns="http://www.w3.org/2000/svg" p-id="2246" xmlns:xlink="http://www.w3.org/1999/xlink" width="64" height="64"><defs><style type="text/css"></style></defs><path d="M313.652974 887.000338c-26.719345 26.624819-70.012247 26.624819-96.794609 0l-96.857626-96.857626c-26.687837-26.813871-26.687837-70.106773 0-96.857626l125.246931-125.183913 117.590326-117.590326c-52.493431-31.004523-120.961753-24.26167-166.019139 20.732699l-173.581218 173.675744c-53.501708 53.407182-53.501708 140.150528 0 193.589218l145.191914 145.191914c53.501708 53.564725 140.150528 53.564725 193.652235 0l173.581218-173.518201c45.088895-44.994369 51.642697-113.557217 20.795717-166.082156L313.652974 887.000338 313.652974 887.000338 313.652974 887.000338M951.293763 200.867719l-145.223422-145.223422c-53.470199-53.407182-140.150528-53.407182-193.652235 0l-173.612727 173.675744c-45.057386 44.994369-51.642697 113.368165-20.795717 165.956122l242.837257-242.774239c26.719345-26.782363 70.012247-26.782363 96.7631 0l96.794609 96.857626c26.782363 26.782363 26.782363 70.075264 0 96.857626l-242.774239 242.774239c52.493431 30.84698 120.961753 24.26167 166.050648-20.890243l173.612727-173.518201C1004.763962 341.018247 1004.763962 254.432444 951.293763 200.867719L951.293763 200.867719 951.293763 200.867719M301.616665 681.154251l24.167144 24.26167c20.039509 20.039509 52.556448 20.039509 72.595957 0l274.503462-274.597988c20.165544-20.039509 20.165544-52.556448 0-72.595957l-24.167144-24.26167c-20.071018-20.039509-52.556448-20.039509-72.627465 0l-274.503462 274.597988C281.48263 628.566294 281.48263 661.083233 301.616665 681.154251L301.616665 681.154251 301.616665 681.154251M301.616665 681.154251 301.616665 681.154251z" p-id="2247" fill="#d71718"></path></svg>