<?xml version="1.0" standalone="no"?><!DOCTYPE svg PUBLIC "-//W3C//DTD SVG 1.1//EN" "http://www.w3.org/Graphics/SVG/1.1/DTD/svg11.dtd"><svg t="1499382473394" class="icon" style="" viewBox="0 0 1024 1024" version="1.1" xmlns="http://www.w3.org/2000/svg" p-id="3487" xmlns:xlink="http://www.w3.org/1999/xlink" width="48" height="48"><defs><style type="text/css"></style></defs><path d="M649.935 961.728h-426.972c-42.855 0-77.849-34.992-77.849-77.846v-597.868c0-42.944 34.992-77.849 77.849-77.849h426.883c42.944 0 77.849 34.992 77.849 77.849v597.867c0.086 42.855-34.816 77.849-77.76 77.849zM222.963 244.129c-23.15 0-41.885 18.821-41.885 41.885v597.867c0 23.15 18.821 41.885 41.885 41.885h426.883c23.15 0 41.885-18.822 41.885-41.885v-597.867c0-23.152-18.822-41.885-41.885-41.885h-426.883z" p-id="3488" fill="#d71718"></path><path d="M801.124 56.887h-426.972c-42.944 0-77.849 34.992-77.849 77.849v73.341h35.964v-73.341c0-23.152 18.822-41.885 41.885-41.885h426.883c23.15 0 41.885 18.821 41.885 41.885v597.867c0 23.15-18.821 41.885-41.885 41.885h-73.253v35.964h73.253c42.945 0 77.849-34.992 77.849-77.849v-597.867c0.089-42.855-34.902-77.849-77.76-77.849z" p-id="3489" fill="#d71718"></path><path d="M589.937 433.67h-308.478c-9.721 0-17.584-7.865-17.584-17.585s7.865-17.584 17.584-17.584h308.477c9.721 0 17.584 7.865 17.584 17.584 0.001 9.721-7.775 17.585-17.582 17.585z" p-id="3490" fill="#d71718"></path><path d="M589.937 602.531h-308.478c-9.721 0-17.584-7.865-17.584-17.584s7.865-17.584 17.584-17.584h308.477c9.721 0 17.584 7.865 17.584 17.584s-7.775 17.584-17.582 17.584z" p-id="3491" fill="#d71718"></path><path d="M589.937 771.393h-308.478c-9.721 0-17.584-7.865-17.584-17.584s7.865-17.584 17.584-17.584h308.477c9.721 0 17.584 7.865 17.584 17.584s-7.775 17.584-17.582 17.584z" p-id="3492" fill="#d71718"></path></svg>