<?xml version="1.0" standalone="no"?><!DOCTYPE svg PUBLIC "-//W3C//DTD SVG 1.1//EN" "http://www.w3.org/Graphics/SVG/1.1/DTD/svg11.dtd"><svg t="1498748861086" class="icon" style="" viewBox="0 0 1024 1024" version="1.1" xmlns="http://www.w3.org/2000/svg" p-id="3689" xmlns:xlink="http://www.w3.org/1999/xlink" width="200" height="200"><defs><style type="text/css"></style></defs><path d="M994.095104 479.637504 563.372032 54.325248c-2.14016-2.54976-6.93248-6.995968-13.586432-11.382784-11.196416-7.389184-23.887872-11.880448-37.810176-11.880448-14.874624 0-27.869184 4.513792-38.77888 11.997184-6.602752 4.524032-11.147264 9.148416-13.723648 12.593152L29.906944 479.694848c-16.594944 16.347136-16.594944 42.917888 0 59.303936 16.461824 16.287744 38.36928 9.418752 57.0368-8.97024l28.903424-28.581888L513.165312 116.484096l423.903232 416.909312c22.736896 14.977024 42.776576 19.685376 57.032704 5.603328C1010.688 522.612736 1010.688 496.027648 994.095104 479.637504L994.095104 479.637504zM432.13824 925.184c0-80.001024 0-213.426176 0-213.426176 0-19.72224 16.269312-35.772416 36.374528-35.772416l86.972416 0c20.11136 0 36.37248 16.050176 36.37248 35.772416 0 0 0 133.236736 0 213.256192M763.588608 995.670016c56.987648 0 103.213056-45.643776 103.213056-102.096896l0-401.48992c-0.1536-19.666944-16.171008-35.424256-35.844096-35.424256l0 0c-19.695616 0-35.74784 15.79008-35.825664 35.3792l0 0.100352 0 0.098304 0 396.607488c0 19.728384-16.273408 35.794944-36.37248 35.794944l-95.275008 0L663.484416 706.973696c0-56.430592-46.204928-102.070272-103.215104-102.070272l-96.5632 0c-56.993792 0-103.213056 45.64992-103.213056 102.070272l0 217.665536-95.275008 0c-20.099072 0-36.37248-16.06656-36.37248-35.794944L228.845568 492.16512c-0.038912-19.6608-16.101376-35.506176-35.79904-35.506176-19.730432 0-35.774464 15.818752-35.854336 35.457024l0 401.457152c0 56.457216 46.215168 102.096896 103.2192 102.096896l159.95904 0M592.896 995.670016" p-id="3690" fill="#d71718"></path></svg>