<?xml version="1.0" standalone="no"?><!DOCTYPE svg PUBLIC "-//W3C//DTD SVG 1.1//EN" "http://www.w3.org/Graphics/SVG/1.1/DTD/svg11.dtd"><svg t="1498128938452" class="icon" style="" viewBox="0 0 1024 1024" version="1.1" xmlns="http://www.w3.org/2000/svg" p-id="17034" xmlns:xlink="http://www.w3.org/1999/xlink" width="200" height="200"><defs><style type="text/css"></style></defs><path d="M877.988 961.61H272.626c-55.384 0-91.655-96.337-91.655-96.337l0.389-64.244 28.509 2.015c65.277 0 65.4-66.235 65.4-66.235 0-64.235-63.162-66.233-63.162-66.233h-31.549l0.546-126.441 29.797-0.01c59.348 0 65.408-62.245 65.408-62.245 0-68.24-65.152-68.24-65.152-68.24l-29.533 0.009-0.653-126.466 30.038-1.858c65.285 0 64.615-64.351 64.615-64.351 0-58.209-63.006-64.244-63.006-64.244h-31.647V94.5c0-17.736 14.168-32.11 31.647-32.11h568.43c17.488 0 31.657 14.374 31.657 32.11l63.31 1.998c25.711 0 31.647 32.125 31.647 32.125v802.883c0 24.093-29.674 30.104-29.674 30.104zM749.4 287.183H337.91v256.943h411.49V287.183h-0.001zM845.34 134.65l-32.638-11.048v708.205c0 17.743-14.168 32.125-31.656 32.125l-539.086 0.33c0 22.079 32.646 33.117 32.646 33.117h538.096c33.637 0 32.638-30.103 32.638-30.103V134.65z m-428.3 216.775H670.27c8.736 0 15.828 7.192 15.828 16.059 0 8.868-7.092 16.05-15.828 16.05H417.04c-8.735 0-15.827-7.183-15.827-16.05-0.001-8.867 7.092-16.06 15.827-16.06z m0 96.346H670.27c8.736 0 15.828 7.184 15.828 16.059 0 8.868-7.092 16.059-15.828 16.059H417.04c-8.735 0-15.827-7.192-15.827-16.06-0.001-8.874 7.092-16.058 15.827-16.058z m-174.089-224.8c0 17.726-14.177 32.1-31.656 32.1h-63.302c-17.489 0-31.656-14.374-31.656-32.1 0-17.752 14.167-32.126 31.656-32.126h63.302c17.48 0 31.656 14.374 31.656 32.125zM117.66 479.89c0-17.744 14.176-32.119 31.655-32.119h61.981c17.48 0 31.656 14.375 31.656 32.119 0 17.734-14.177 32.109-31.656 32.109h-61.981c-17.478 0-31.655-14.375-31.655-32.11z m30.335 224.8h63.302c17.48 0 31.656 14.375 31.656 32.118 0 17.728-14.177 32.11-31.656 32.11h-63.302c-17.489 0-31.656-14.382-31.656-32.11 0-17.743 14.168-32.117 31.656-32.117z" fill="#d71718" p-id="17035"></path></svg>