<?xml version="1.0" standalone="no"?><!DOCTYPE svg PUBLIC "-//W3C//DTD SVG 1.1//EN" "http://www.w3.org/Graphics/SVG/1.1/DTD/svg11.dtd"><svg t="1498128897092" class="icon" style="" viewBox="0 0 1118 1024" version="1.1" xmlns="http://www.w3.org/2000/svg" p-id="15502" xmlns:xlink="http://www.w3.org/1999/xlink" width="218.359375" height="200"><defs><style type="text/css"></style></defs><path d="M1115.438545 596.968727 934.097455 0 127.976727 170.845091 189.137455 389.166545 0 439.086545C0 439.086545 88.250182 720.290909 146.338909 905.774545 204.497455 1091.118545 344.925091 1003.124364 344.925091 1003.124364 344.925091 1003.124364 954.158545 747.077818 1046.667636 708.072727 1133.986909 671.488 1115.438545 596.968727 1115.438545 596.968727L1115.438545 596.968727ZM210.362182 874.821818 90.018909 491.426909 211.618909 463.313455 359.656727 958.906182 411.508364 927.441455C246.551273 1015.947636 210.362182 874.821818 210.362182 874.821818L210.362182 874.821818ZM1023.744 666.949818C1023.744 666.949818 907.938909 711.819636 773.073455 767.069091L686.568727 491.496727 403.386182 579.84 498.967273 884.782545C470.784 897.954909 445.44 910.103273 424.261818 920.925091L276.084364 448.535273 276.084364 448.535273 211.479273 223.394909 914.827636 61.556364C914.827636 61.556364 1047.109818 502.760727 1068.637091 571.345455 1090.164364 639.930182 1023.744 666.949818 1023.744 666.949818L1023.744 666.949818ZM980.363636 416.162909 745.309091 490.682182 763.694545 549.469091 997.515636 470.714182 980.363636 416.162909 980.363636 416.162909ZM775.424 586.798545 793.739636 645.492364 1025.489455 559.918545 1008.360727 505.390545 775.424 586.798545 775.424 586.798545ZM427.729455 278.132364 442.600727 325.422545C450.280727 349.928727 457.984 371.688727 466.827636 392.541091L466.338909 392.680727C452.910545 376.506182 437.015273 358.795636 421.655273 344.226909L367.36 293.003636 321.303273 304.407273 373.736727 471.668364 409.553455 461.056 393.890909 411.136C385.466182 384.046545 377.623273 360.913455 369.477818 339.176727L370.455273 338.897455C384.581818 356.096 402.757818 374.318545 418.350545 389.166545L473.786182 442.088727 512.465455 430.661818 462.08 269.707636 427.729455 278.132364 427.729455 278.132364ZM570.274909 381.556364 558.475636 344.226909 615.168 328.564364 606.231273 300.008727 549.399273 315.019636 539.136 282.298182 599.412364 266.868364 590.336 238.103273 494.08 261.818182 544.046545 421.306182 642.210909 392.471273 633.111273 363.613091 570.274909 381.556364 570.274909 381.556364ZM719.173818 298.914909C717.800727 282.740364 715.589818 267.892364 712.890182 250.251636L713.332364 250.181818C720.500364 266.868364 727.086545 280.250182 734.580364 294.679273L766.650182 355.723636 800.418909 345.832727 789.364364 189.207273 757.853091 196.957091 765.486545 260.212364C768.256 278.714182 770.536727 296.936727 773.678545 314.065455L773.306182 314.228364C765.998545 298.263273 758.877091 282.973091 750.242909 266.426182L719.336727 206.405818 685.056 214.830545 692.154182 279.738182C694.434909 299.589818 696.762182 318.766545 699.694545 335.965091L699.182545 336.034909C692.014545 321.326545 682.845091 302.498909 673.838545 285.160727L643.002182 225.140364 606.976 233.984 690.245818 378.274909 726.062545 367.662545 719.173818 298.914909 719.173818 298.914909ZM862.743273 261.515636C880.128 263.121455 888.017455 266.496 890.810182 275.502545 893.742545 284.788364 888.622545 292.910545 875.124364 296.866909 862.603636 300.381091 848.686545 299.496727 839.377455 297.169455L841.797818 326.004364C850.664727 328.424727 866.932364 328.564364 881.873455 324.096 917.038545 313.716364 926.696727 288.744727 919.296 264.96 913.082182 244.898909 898.653091 234.658909 873.076364 231.354182 853.829818 228.864 845.242182 226.746182 842.542545 217.530182 840.261818 210.199273 844.381091 202.007273 857.181091 198.795636 869.632 195.560727 880.128 197.189818 886.039273 198.795636L884.503273 171.194182C875.636364 169.216 864.209455 168.634182 849.268364 172.218182 818.525091 179.758545 805.096727 203.333818 812.869818 228.282182 819.456 249.297455 838.283636 258.816 862.743273 261.515636L862.743273 261.515636Z" p-id="15503" fill="#d71718"></path></svg>