<?xml version="1.0" standalone="no"?><!DOCTYPE svg PUBLIC "-//W3C//DTD SVG 1.1//EN" "http://www.w3.org/Graphics/SVG/1.1/DTD/svg11.dtd"><svg t="1498749834561" class="icon" style="" viewBox="0 0 1024 1024" version="1.1" xmlns="http://www.w3.org/2000/svg" p-id="7087" xmlns:xlink="http://www.w3.org/1999/xlink" width="200" height="200"><defs><style type="text/css"></style></defs><path d="M471.095 512c0 22.592 18.314 40.905 40.905 40.905 22.592 0 40.905-18.314 40.905-40.905 0-22.592-18.314-40.905-40.905-40.905-22.592 0-40.905 18.314-40.905 40.905z" fill="#d71718" p-id="7088"></path><path d="M962 512c0-49.005-59.49-92.88-153.428-122.827 45.18-87.593 56.272-160.695 21.645-195.368-34.695-34.65-107.775-23.558-195.39 21.623C604.879 121.445 561.005 62 512 62c-49.05 0-92.903 59.445-122.827 153.428-87.593-45.18-160.74-56.272-195.412-21.623-34.65 34.672-23.512 107.775 21.69 195.367-94.005 29.948-153.45 73.822-153.45 122.827s59.445 92.88 153.45 122.827c-45.202 87.615-56.317 160.695-21.69 195.39 34.695 34.627 107.82 23.535 195.412-21.623C419.098 902.508 462.95 961.998 512 961.998c49.005 0 92.88-59.49 122.827-153.405 87.615 45.158 160.695 56.25 195.39 21.623 34.627-34.695 23.535-107.775-21.645-195.39C902.51 604.879 962 561.004 962 511.999z m-859.095 0c0-35.528 50.355-67.455 130.702-89.865 17.145 29.115 37.687 59.332 61.222 90.09-23.4 30.488-44.167 60.682-61.222 89.64-80.348-22.41-130.702-54.337-130.702-89.865z m247.567-67.05c-10.597 11.745-20.588 23.558-30.33 35.347-18.067-23.265-33.953-45.9-47.948-67.68 25.2-5.49 52.493-10.148 81.585-13.77-1.44 15.052-2.43 30.487-3.308 46.103z m3.331 180.248c-29.115-3.623-56.385-8.325-81.585-13.815 13.927-21.667 30.105-44.302 48.015-67.365a1129.688 1129.688 0 0 0 30.262 35.055c0.855 15.593 1.845 31.073 3.308 46.125zM222.74 801.26c-25.132-25.11-11.903-83.43 29.048-156.105 32.67 8.46 68.31 15.435 106.56 20.498 5.063 38.228 12.06 73.913 20.475 106.538-72.675 40.995-131.017 54.18-156.082 29.07z m135.585-442.935c-38.272 5.107-73.89 12.06-106.56 20.52-40.928-72.697-54.157-130.995-29.025-156.127 25.087-25.088 83.43-11.88 156.083 29.092-8.438 32.625-15.435 68.287-20.498 106.515z m266.873-4.522c-15.053-1.418-30.578-2.408-46.147-3.285-11.7-10.553-23.4-20.588-35.1-30.24 23.107-17.933 45.742-34.11 67.387-48.037 5.513 25.2 10.192 52.47 13.86 81.563zM512 102.905c35.483 0 67.455 50.4 89.865 130.725-28.958 17.055-59.152 37.822-89.685 61.245-30.712-23.535-60.975-44.1-90.045-61.245 22.41-80.325 54.337-130.725 89.865-130.725z m-99.382 169.313c21.78 13.972 44.392 29.88 67.635 47.947-11.745 9.743-23.558 19.733-35.325 30.33-15.57 0.877-31.072 1.868-46.147 3.285 3.69-29.07 8.347-56.34 13.838-81.563zM398.78 670.197c15.075 1.418 30.555 2.408 46.147 3.33a1225.6 1225.6 0 0 0 35.077 30.24c-23.085 17.91-45.697 34.11-67.365 48.015-5.512-25.222-10.17-52.515-13.86-81.585zM512 921.095c-35.528 0-67.455-50.332-89.865-130.702 28.958-17.077 59.108-37.867 89.64-61.267 30.712 23.535 60.93 44.123 90.09 61.267-22.41 80.348-54.383 130.702-89.865 130.702z m99.36-169.313c-21.758-13.972-44.392-29.902-67.658-47.97 11.79-9.743 23.603-19.71 35.347-30.285 15.547-0.923 31.095-1.912 46.147-3.33-3.668 29.07-8.347 56.363-13.838 81.585z m22.207-189.247c-11.227 12.082-22.747 24.165-34.83 36.248-12.038 12.038-24.12 23.58-36.248 34.83-16.583 0.585-33.345 1.102-50.49 1.102-17.19 0-33.953-0.495-50.535-1.102-12.083-11.25-24.21-22.793-36.248-34.83-12.038-12.083-23.58-24.165-34.83-36.248-0.608-16.628-1.147-33.345-1.147-50.535s0.517-33.907 1.147-50.535c11.25-12.083 22.793-24.165 34.83-36.248 12.038-12.038 24.165-23.58 36.248-34.83 16.583-0.585 33.345-1.147 50.535-1.147 17.145 0 33.907 0.54 50.49 1.147 12.127 11.25 24.21 22.792 36.248 34.83 12.083 12.083 23.603 24.165 34.83 36.248 0.63 16.628 1.147 33.345 1.147 50.535s-0.495 33.907-1.147 50.535zM801.26 222.718c25.087 25.155 11.903 83.43-29.115 156.127-32.58-8.46-68.265-15.413-106.515-20.52-5.108-38.228-12.06-73.89-20.475-106.515 72.653-40.973 130.995-54.18 156.105-29.092z m-97.515 257.265c-9.675-11.678-19.778-23.355-30.218-35.055-0.923-15.548-1.958-31.05-3.33-46.103 29.07 3.623 56.363 8.28 81.563 13.77-13.927 21.69-30.082 44.325-48.015 67.388z m0.068 63.72c18.067 23.265 33.953 45.9 47.947 67.68-25.2 5.49-52.492 10.192-81.563 13.815 1.395-15.053 2.408-30.532 3.33-46.147 10.552-11.745 20.565-23.535 30.285-35.348zM801.26 801.26c-25.11 25.087-83.453 11.903-156.105-29.07 8.415-32.625 15.39-68.31 20.475-106.537 38.25-5.085 73.935-12.037 106.515-20.498 41.04 72.675 54.225 130.995 29.115 156.105z m-10.913-199.395c-17.1-29.07-37.687-59.332-61.222-90.09 23.4-30.488 44.19-60.638 61.222-89.64 80.393 22.41 130.748 54.337 130.748 89.865s-50.355 67.455-130.748 89.865z" fill="#d71718" p-id="7089"></path></svg>