<?xml version="1.0" standalone="no"?><!DOCTYPE svg PUBLIC "-//W3C//DTD SVG 1.1//EN" "http://www.w3.org/Graphics/SVG/1.1/DTD/svg11.dtd"><svg t="1508988353052" class="icon" style="" viewBox="0 0 1025 1024" version="1.1" xmlns="http://www.w3.org/2000/svg" p-id="7759" xmlns:xlink="http://www.w3.org/1999/xlink" width="32.03125" height="32"><defs><style type="text/css"></style></defs><path d="M546.042921 348.387875l0-72.805723-93.883693-20.858483c-3.203095-10.010787-7.280572-19.609365-12.037927-28.818932l51.692063-81.239052-51.486851-51.485067-81.239052 51.692063c-9.209567-4.757354-18.808145-8.833047-28.818932-12.037927L309.424322 38.963553l-72.805723 0-20.858483 93.881909c-10.010787 3.203095-19.609365 7.280572-28.818932 12.037927L105.702132 93.19311 54.215281 144.678176l51.692063 81.239052c-4.757354 9.209567-8.834832 18.808145-12.037927 28.818932L0 275.582152l0 72.805723 93.883693 20.858483c3.203095 10.010787 7.280572 19.609365 12.037927 28.818932l-51.692063 81.239052 51.486851 51.485067 81.239052-51.692063c9.209567 4.757354 18.808145 8.833047 28.818932 12.037927l20.847776 93.871202 72.805723 0 20.858483-93.883693c10.010787-3.203095 19.609365-7.280572 28.818932-12.037927l81.239052 51.692063 51.486851-51.485067-51.692063-81.239052c4.757354-9.211351 8.834832-18.808145 12.037927-28.818932L546.042921 348.387875zM273.02146 402.992167c-50.260931 0-91.007153-40.746222-91.007153-91.007153 0-50.260931 40.746222-91.007153 91.007153-91.007153s91.007153 40.746222 91.007153 91.007153C364.028614 362.245944 323.282392 402.992167 273.02146 402.992167zM663.40646 877.467776l22.946294-56.035424-65.694674-45.649902c0.692368-8.711704 0.569241-17.38772-0.183799-25.967374l65.393101-46.244125-23.406683-55.85341-78.824686 14.197116c-5.594263-6.5543-11.686389-12.730295-18.383445-18.347756l13.52973-78.837177-56.035424-22.944509-45.649902 65.694674c-8.711704-0.692368-17.38772-0.571025-25.967374 0.182014l-46.244125-65.393101-55.85341 23.406683 14.197116 78.824686c-6.552515 5.594263-12.72851 11.686389-18.347756 18.385229l-78.837177-13.52973-22.944509 56.035424 65.694674 45.648118c-0.692368 8.713489-0.571025 17.38772 0.182014 25.967374l-65.391316 46.244125 23.406683 55.855194 78.822902-14.197116c5.594263 6.552515 11.686389 12.72851 18.383445 18.345971l-13.52973 78.837177 56.035424 22.944509 45.649902-65.692889c8.711704 0.692368 17.389504 0.569241 25.967374-0.183799l46.244125 65.393101 55.855194-23.406683-14.197116-78.824686c6.552515-5.581772 12.72851-11.686389 18.345971-18.383445L663.40646 877.467776zM436.033117 833.456003c-38.683394-15.835245-57.213164-60.039739-41.377919-98.735624 15.835245-38.697669 60.039739-57.213164 98.737408-41.377919 38.683394 15.835245 57.213164 60.039739 41.377919 98.737408C518.93528 830.773969 474.730786 849.303739 436.033117 833.456003zM1024.001784 297.315017l-19.306008-59.53117-82.306156 7.839106c-5.265924-7.341244-11.163544-14.098971-17.485865-20.373111l20.724649-80.134475-55.757049-28.442412-52.723478 63.813859c-8.786651-1.443623-17.716059-2.244843-26.756103-2.196663L748.430339 107.049395l-59.529385 19.306008 7.839106 82.306156c-7.341244 5.265924-14.098971 11.163544-20.373111 17.485865l-80.134475-20.724649-28.442412 55.757049 63.813859 52.723478c-1.443623 8.784867-2.244843 17.716059-2.194878 26.756103L558.177208 382.606564l19.306008 59.53117 82.306156-7.839106c5.265924 7.341244 11.151053 14.098971 17.485865 20.373111l-20.724649 80.134475 55.757049 28.442412 52.723478-63.813859c8.784867 1.443623 17.716059 2.244843 26.756103 2.194878l41.961436 71.240757 59.529385-19.306008-7.839106-82.306156c7.341244-5.265924 14.098971-11.163544 20.373111-17.485865l80.134475 20.724649 28.442412-55.757049-63.815644-52.723478c1.445408-8.784867 2.244843-17.716059 2.196663-26.756103L1024.001784 297.315017zM815.231374 414.375199c-41.099544 13.335225-85.23266-9.186369-98.555394-50.284129-13.335225-41.099544 9.186369-85.23266 50.285913-98.555394 41.09776-13.335225 85.23266 9.186369 98.553609 50.284129C878.838237 356.919349 856.329134 401.050681 815.231374 414.375199z" fill="#d71718" p-id="7760"></path></svg>