<?xml version="1.0" standalone="no"?><!DOCTYPE svg PUBLIC "-//W3C//DTD SVG 1.1//EN" "http://www.w3.org/Graphics/SVG/1.1/DTD/svg11.dtd"><svg t="1498656641889" class="icon" style="" viewBox="0 0 1024 1024" version="1.1" xmlns="http://www.w3.org/2000/svg" p-id="8617" xmlns:xlink="http://www.w3.org/1999/xlink" width="200" height="200"><defs><style type="text/css"></style></defs><path d="M932.274414 225.356584l-416.362826 169.595606-417.314501-169.595606L514.948657 64.332191 932.274414 225.356584zM64.29484 295.864428 479.707015 469.260593l0 469.719034c-33.028231-14.594393-67.318198-29.870308-102.899578-45.738717-30.480198-13.320377-64.948221-28.242228-103.374392-44.762483-38.430264-16.522302-77.007885-33.041534-115.761514-49.566906-13.970176-6.345522-26.680663-14.756075-38.115086-25.229614-11.43647-10.469446-21.282722-21.919219-29.529547-34.290991-8.261151-12.398378-14.609743-25.581632-19.059078-39.553854-4.448312-13.9712-6.674003-27.616988-6.674003-40.964994L64.293817 295.864428 64.29484 295.864428zM957.994192 295.864428l0 361.108385c0 16.494673-3.173273 32.55444-9.522887 48.100508-6.360871 15.572674-14.459317 30.166043-24.306592 43.812855-9.834996 13.673417-20.797675 25.746384-32.868595 36.217876-12.05864 10.500145-23.816428 18.582217-35.252899 24.308639-33.667797 13.970176-68.908416 28.565593-105.750509 43.810808-36.84107 15.248286-70.819952 29.220508-101.94995 41.942251-36.205597 15.22168-71.76958 29.843702-106.711394 43.813878L541.631366 469.260593 957.994192 295.864428zM957.994192 295.864428" p-id="8618" fill="#d71718"></path></svg>